<svg width="100" height="100" viewBox="0 0 100 100" fill="none" xmlns="http://www.w3.org/2000/svg">
<circle cx="50" cy="50" r="49" stroke="#A4EC18" stroke-width="2"/>
<g filter="url(#filter0_d_1_8532)">
<ellipse cx="50" cy="50.5" rx="42" ry="41.5" fill="#F9F9F9"/>
</g>
<mask id="path-3-outside-1_1_8532" maskUnits="userSpaceOnUse" x="27" y="27" width="46" height="46" fill="black">
<rect fill="white" x="27" y="27" width="46" height="46"/>
<path fill-rule="evenodd" clip-rule="evenodd" d="M53.3477 63.6104L51.6053 66.7623L58.9957 70.8442L60.7381 67.6922L53.3477 63.6104ZM54.4342 63.0574C54.6202 58.8776 57.5029 55.9117 61.4869 54.8398C61.575 54.8154 61.6631 54.7664 61.7267 54.693L65.647 50.4105C65.8673 50.1707 66.1658 50.0434 66.4693 50.0288C66.7433 50.019 67.1104 50.1169 67.3062 50.3224C67.5558 50.5427 67.6928 50.8412 67.7026 51.1593C67.7124 51.4334 67.6145 51.8005 67.409 51.9963L67.3943 52.0158L62.6664 57.1842C62.4804 57.3898 62.4951 57.7079 62.6958 57.8939C62.9013 58.0799 63.2195 58.0652 63.4054 57.8645L68.1186 52.7157C68.5249 52.3144 68.7255 51.6683 68.706 51.1251C68.6815 50.572 68.4515 50.0288 68.0159 49.6225L67.6047 49.3191L67.7075 44.1997C67.7271 43.3627 68.0746 42.193 69.0534 42.2175C70.0519 42.242 70.7762 43.0838 70.7909 44.0577L70.9916 56.4452C71.0112 57.796 67.8103 60.1599 64.6926 62.4651C63.2733 63.5125 61.8735 64.5452 60.7674 65.4996C60.7087 65.5485 60.6695 65.6073 60.6353 65.6758L60.3416 66.3316L54.4342 63.0671V63.0574ZM50.4796 66.7183L52.7065 62.6854C52.8387 62.4407 53.147 62.3526 53.3917 62.4847L53.4603 62.5239C53.6413 60.5368 54.3853 58.7944 55.5599 57.3751C56.9107 55.7404 58.8244 54.5462 61.0856 53.9099L64.9031 49.74C65.3534 49.2506 65.9798 49.0059 66.6063 49.0303C66.6406 47.4152 66.6455 45.7805 66.7042 44.1703C66.7482 42.7314 67.453 41.1652 69.0828 41.2044C70.6196 41.2386 71.7747 42.5209 71.7991 44.0333L71.9998 56.4207C72.0292 58.2903 68.6179 60.8109 65.2946 63.2629C63.9291 64.2711 62.5783 65.2696 61.5114 66.1799L61.2275 66.8064L61.668 67.0511C61.9127 67.1832 62.0008 67.4916 61.8686 67.7363L59.6417 71.7692C59.5096 72.0139 59.2013 72.102 58.9565 71.9698L50.6852 67.3986C50.4405 67.2664 50.3524 66.9581 50.4845 66.7134L50.4796 66.7183ZM39.6584 66.3218L45.5658 63.0574C45.3798 58.8776 42.4971 55.9117 38.5131 54.8398C38.425 54.8154 38.3369 54.7664 38.2733 54.693L34.353 50.4105C33.6531 49.6519 32.3414 50.0875 32.2974 51.1593C32.2827 51.4628 32.3855 51.7711 32.6057 52.011L37.3336 57.1793C37.5196 57.3849 37.5049 57.703 37.3042 57.889C37.0987 58.075 36.7805 58.0652 36.5946 57.8596L31.8667 52.6913C30.9221 51.6586 31.1815 50.0043 32.3953 49.3093L32.2925 44.1899C32.2729 43.353 31.9254 42.1832 30.9417 42.2077C29.953 42.2322 29.2238 43.074 29.2091 44.0479L29.0084 56.4354C28.9888 57.7862 32.1897 60.1501 35.3074 62.4554C36.7267 63.5027 38.1265 64.5354 39.2326 65.4898C39.2913 65.5388 39.3305 65.5975 39.3647 65.666L39.6584 66.3218ZM47.2886 62.6854L49.5155 66.7183C49.6476 66.963 49.5595 67.2664 49.3148 67.4035L41.0435 71.9747C40.7987 72.1069 40.4953 72.0188 40.3583 71.7741L38.1314 67.7412C37.9992 67.4965 38.0873 67.193 38.332 67.056L38.7725 66.8113L38.4886 66.1848C37.4266 65.2745 36.0758 64.276 34.7054 63.2678C31.3821 60.8109 27.9708 58.2952 28.0002 56.4256L28.2009 44.0382C28.2253 42.516 29.3902 41.2386 30.927 41.2093C32.547 41.1799 33.2762 42.7754 33.2958 44.1752C33.2958 45.7805 33.3594 47.425 33.3937 49.0352C34.0202 49.0108 34.6466 49.2555 35.0969 49.7449L38.9144 53.9148C41.1756 54.5511 43.0893 55.7453 44.4401 57.38C45.6098 58.7993 46.3587 60.5417 46.5397 62.5288L46.6083 62.4896C46.853 62.3575 47.1564 62.4456 47.2935 62.6903L47.2886 62.6854ZM48.3898 66.7623L40.9994 70.8442L39.257 67.6922L46.6474 63.6104L48.3898 66.7623ZM53.7001 34.695C51.6543 32.6492 48.3408 32.6492 46.2999 34.695C44.2541 36.7408 44.2541 40.0542 46.2999 42.0951C48.3457 44.1409 51.6592 44.1409 53.7001 42.0951C55.7459 40.0493 55.7459 36.7359 53.7001 34.695ZM50 32.1548C46.5495 32.1548 43.7549 34.9495 43.7549 38.3999C43.7549 41.8504 46.5495 44.6451 50 44.6451C53.4505 44.6451 56.2451 41.8504 56.2451 38.3999C56.2451 34.9495 53.4505 32.1548 50 32.1548ZM52.638 48.5017L54.4097 52.6081L55.3543 51.037C55.4718 50.8412 55.7018 50.758 55.9123 50.8118L57.7574 51.2817L55.6676 46.0301C55.2467 45.9714 54.7915 45.9225 54.351 46.1721C53.4064 46.7055 53.5386 47.9291 52.638 48.5066V48.5017ZM44.3079 46.3042C44.4352 46.9258 44.6554 47.5082 45.4189 47.8802C46.4516 48.3843 47.0732 47.8606 47.8025 47.4593L45.5854 52.6081L44.6408 51.0419C44.5233 50.8461 44.2933 50.7629 44.0828 50.8167L42.2572 51.2817L44.3079 46.314V46.3042ZM44.6408 44.2046C44.8218 44.2829 44.9344 44.4591 44.9393 44.6499C45.1008 44.9876 45.1644 45.3547 45.2232 45.7267C45.3064 46.2357 45.3945 46.7496 45.8545 46.9747C46.7355 47.4054 47.3865 46.0106 48.8988 46.2161C50.3622 46.4168 50.6852 47.9781 51.757 47.7725H51.7717C51.8158 47.748 51.8647 47.7382 51.9088 47.7285C52.2465 47.5963 52.3982 47.2635 52.5548 46.8964C52.8044 46.3336 53.0736 45.7218 53.8518 45.2862C55.3005 44.4738 56.387 45.5456 57.0429 44.8212C57.7868 43.999 56.622 42.9272 57.2191 41.5861C57.8945 40.064 59.397 40.2647 59.49 39.2956C59.5879 38.2384 57.9875 37.9839 57.7085 36.7065C57.4295 35.4291 58.7852 34.5384 58.3203 33.721C57.7917 32.7813 56.3528 33.5301 55.3837 32.6247C54.3951 31.6997 55.0754 30.2461 54.1797 29.8154C53.2596 29.37 52.4129 30.76 51.111 30.574C49.4665 30.3391 49.2267 28.8365 48.2723 29.0127C47.1956 29.2134 47.4843 30.7355 46.1237 31.499C44.8512 32.2136 43.6766 31.1564 42.9278 31.9786C42.2621 32.7079 43.4319 33.7112 42.7858 35.1257C42.1251 36.5744 40.5834 36.4178 40.4806 37.5043C40.3876 38.488 41.9734 38.6789 42.2377 39.9808C42.5068 41.2876 41.1903 42.1979 41.6895 43.0838C42.1887 43.9647 43.6374 43.1376 44.6212 44.2095L44.6408 44.2046ZM48.982 47.2733C49.2903 47.3859 49.5448 47.6404 49.7944 47.89C50.2937 48.3843 50.7831 48.8688 51.669 48.8003L53.8714 53.905C54.0378 54.2966 54.5664 54.3064 54.7719 53.954L56.0249 51.8788L58.4622 52.5004C58.844 52.5983 59.2306 52.2214 59.0397 51.7858L56.7737 46.0889C57.1163 46.035 57.454 45.8784 57.7966 45.5015C59.0055 44.1752 57.7379 42.9272 58.149 41.9972C58.6629 40.8324 60.3367 41.1114 60.4982 39.3935C60.601 38.3167 59.9843 37.8126 59.3872 37.3134C59.074 37.054 58.7706 36.7995 58.7069 36.501C58.5307 35.6934 60.0235 34.6705 59.2159 33.2365C58.3545 31.7046 56.6807 32.4534 56.0885 31.9003C55.4767 31.3277 56.1766 29.6636 54.6398 28.9197C53.1079 28.1758 52.1339 29.7126 51.2725 29.5902C50 29.4091 49.8091 27.7255 48.1157 28.0387C46.3489 28.3667 46.6621 30.0699 45.6588 30.6327C44.7729 31.1319 43.4221 29.9867 42.2132 31.313C41.0532 32.5855 42.3649 33.7014 41.9 34.7194C41.4056 35.806 39.678 35.6347 39.5115 37.426C39.4137 38.4587 40.0108 38.9285 40.5981 39.3935C40.9113 39.6382 41.2197 39.8829 41.2833 40.1961C41.4595 41.0526 40.0108 42.1196 40.8428 43.5879C41.665 45.0415 43.1872 44.2927 43.843 44.8359L40.97 51.7956C40.7743 52.2263 41.156 52.6081 41.5476 52.5102L43.9849 51.8886L45.2379 53.9638C45.4434 54.3113 45.972 54.3064 46.1384 53.9148L48.9967 47.2831L48.982 47.2733ZM46.9166 38.7817L49.1337 41.0869C49.354 41.3169 49.7308 41.2876 49.9119 41.0233L53.1323 36.3346C53.289 36.1045 53.2302 35.7913 53.0002 35.6347C52.7702 35.4781 52.4569 35.5368 52.3003 35.7668L49.4323 39.9465L47.6458 38.0867C47.455 37.886 47.1368 37.8811 46.9362 38.072C46.7355 38.2629 46.7306 38.581 46.9215 38.7817H46.9166Z"/>
</mask>
<path fill-rule="evenodd" clip-rule="evenodd" d="M53.3477 63.6104L51.6053 66.7623L58.9957 70.8442L60.7381 67.6922L53.3477 63.6104ZM54.4342 63.0574C54.6202 58.8776 57.5029 55.9117 61.4869 54.8398C61.575 54.8154 61.6631 54.7664 61.7267 54.693L65.647 50.4105C65.8673 50.1707 66.1658 50.0434 66.4693 50.0288C66.7433 50.019 67.1104 50.1169 67.3062 50.3224C67.5558 50.5427 67.6928 50.8412 67.7026 51.1593C67.7124 51.4334 67.6145 51.8005 67.409 51.9963L67.3943 52.0158L62.6664 57.1842C62.4804 57.3898 62.4951 57.7079 62.6958 57.8939C62.9013 58.0799 63.2195 58.0652 63.4054 57.8645L68.1186 52.7157C68.5249 52.3144 68.7255 51.6683 68.706 51.1251C68.6815 50.572 68.4515 50.0288 68.0159 49.6225L67.6047 49.3191L67.7075 44.1997C67.7271 43.3627 68.0746 42.193 69.0534 42.2175C70.0519 42.242 70.7762 43.0838 70.7909 44.0577L70.9916 56.4452C71.0112 57.796 67.8103 60.1599 64.6926 62.4651C63.2733 63.5125 61.8735 64.5452 60.7674 65.4996C60.7087 65.5485 60.6695 65.6073 60.6353 65.6758L60.3416 66.3316L54.4342 63.0671V63.0574ZM50.4796 66.7183L52.7065 62.6854C52.8387 62.4407 53.147 62.3526 53.3917 62.4847L53.4603 62.5239C53.6413 60.5368 54.3853 58.7944 55.5599 57.3751C56.9107 55.7404 58.8244 54.5462 61.0856 53.9099L64.9031 49.74C65.3534 49.2506 65.9798 49.0059 66.6063 49.0303C66.6406 47.4152 66.6455 45.7805 66.7042 44.1703C66.7482 42.7314 67.453 41.1652 69.0828 41.2044C70.6196 41.2386 71.7747 42.5209 71.7991 44.0333L71.9998 56.4207C72.0292 58.2903 68.6179 60.8109 65.2946 63.2629C63.9291 64.2711 62.5783 65.2696 61.5114 66.1799L61.2275 66.8064L61.668 67.0511C61.9127 67.1832 62.0008 67.4916 61.8686 67.7363L59.6417 71.7692C59.5096 72.0139 59.2013 72.102 58.9565 71.9698L50.6852 67.3986C50.4405 67.2664 50.3524 66.9581 50.4845 66.7134L50.4796 66.7183ZM39.6584 66.3218L45.5658 63.0574C45.3798 58.8776 42.4971 55.9117 38.5131 54.8398C38.425 54.8154 38.3369 54.7664 38.2733 54.693L34.353 50.4105C33.6531 49.6519 32.3414 50.0875 32.2974 51.1593C32.2827 51.4628 32.3855 51.7711 32.6057 52.011L37.3336 57.1793C37.5196 57.3849 37.5049 57.703 37.3042 57.889C37.0987 58.075 36.7805 58.0652 36.5946 57.8596L31.8667 52.6913C30.9221 51.6586 31.1815 50.0043 32.3953 49.3093L32.2925 44.1899C32.2729 43.353 31.9254 42.1832 30.9417 42.2077C29.953 42.2322 29.2238 43.074 29.2091 44.0479L29.0084 56.4354C28.9888 57.7862 32.1897 60.1501 35.3074 62.4554C36.7267 63.5027 38.1265 64.5354 39.2326 65.4898C39.2913 65.5388 39.3305 65.5975 39.3647 65.666L39.6584 66.3218ZM47.2886 62.6854L49.5155 66.7183C49.6476 66.963 49.5595 67.2664 49.3148 67.4035L41.0435 71.9747C40.7987 72.1069 40.4953 72.0188 40.3583 71.7741L38.1314 67.7412C37.9992 67.4965 38.0873 67.193 38.332 67.056L38.7725 66.8113L38.4886 66.1848C37.4266 65.2745 36.0758 64.276 34.7054 63.2678C31.3821 60.8109 27.9708 58.2952 28.0002 56.4256L28.2009 44.0382C28.2253 42.516 29.3902 41.2386 30.927 41.2093C32.547 41.1799 33.2762 42.7754 33.2958 44.1752C33.2958 45.7805 33.3594 47.425 33.3937 49.0352C34.0202 49.0108 34.6466 49.2555 35.0969 49.7449L38.9144 53.9148C41.1756 54.5511 43.0893 55.7453 44.4401 57.38C45.6098 58.7993 46.3587 60.5417 46.5397 62.5288L46.6083 62.4896C46.853 62.3575 47.1564 62.4456 47.2935 62.6903L47.2886 62.6854ZM48.3898 66.7623L40.9994 70.8442L39.257 67.6922L46.6474 63.6104L48.3898 66.7623ZM53.7001 34.695C51.6543 32.6492 48.3408 32.6492 46.2999 34.695C44.2541 36.7408 44.2541 40.0542 46.2999 42.0951C48.3457 44.1409 51.6592 44.1409 53.7001 42.0951C55.7459 40.0493 55.7459 36.7359 53.7001 34.695ZM50 32.1548C46.5495 32.1548 43.7549 34.9495 43.7549 38.3999C43.7549 41.8504 46.5495 44.6451 50 44.6451C53.4505 44.6451 56.2451 41.8504 56.2451 38.3999C56.2451 34.9495 53.4505 32.1548 50 32.1548ZM52.638 48.5017L54.4097 52.6081L55.3543 51.037C55.4718 50.8412 55.7018 50.758 55.9123 50.8118L57.7574 51.2817L55.6676 46.0301C55.2467 45.9714 54.7915 45.9225 54.351 46.1721C53.4064 46.7055 53.5386 47.9291 52.638 48.5066V48.5017ZM44.3079 46.3042C44.4352 46.9258 44.6554 47.5082 45.4189 47.8802C46.4516 48.3843 47.0732 47.8606 47.8025 47.4593L45.5854 52.6081L44.6408 51.0419C44.5233 50.8461 44.2933 50.7629 44.0828 50.8167L42.2572 51.2817L44.3079 46.314V46.3042ZM44.6408 44.2046C44.8218 44.2829 44.9344 44.4591 44.9393 44.6499C45.1008 44.9876 45.1644 45.3547 45.2232 45.7267C45.3064 46.2357 45.3945 46.7496 45.8545 46.9747C46.7355 47.4054 47.3865 46.0106 48.8988 46.2161C50.3622 46.4168 50.6852 47.9781 51.757 47.7725H51.7717C51.8158 47.748 51.8647 47.7382 51.9088 47.7285C52.2465 47.5963 52.3982 47.2635 52.5548 46.8964C52.8044 46.3336 53.0736 45.7218 53.8518 45.2862C55.3005 44.4738 56.387 45.5456 57.0429 44.8212C57.7868 43.999 56.622 42.9272 57.2191 41.5861C57.8945 40.064 59.397 40.2647 59.49 39.2956C59.5879 38.2384 57.9875 37.9839 57.7085 36.7065C57.4295 35.4291 58.7852 34.5384 58.3203 33.721C57.7917 32.7813 56.3528 33.5301 55.3837 32.6247C54.3951 31.6997 55.0754 30.2461 54.1797 29.8154C53.2596 29.37 52.4129 30.76 51.111 30.574C49.4665 30.3391 49.2267 28.8365 48.2723 29.0127C47.1956 29.2134 47.4843 30.7355 46.1237 31.499C44.8512 32.2136 43.6766 31.1564 42.9278 31.9786C42.2621 32.7079 43.4319 33.7112 42.7858 35.1257C42.1251 36.5744 40.5834 36.4178 40.4806 37.5043C40.3876 38.488 41.9734 38.6789 42.2377 39.9808C42.5068 41.2876 41.1903 42.1979 41.6895 43.0838C42.1887 43.9647 43.6374 43.1376 44.6212 44.2095L44.6408 44.2046ZM48.982 47.2733C49.2903 47.3859 49.5448 47.6404 49.7944 47.89C50.2937 48.3843 50.7831 48.8688 51.669 48.8003L53.8714 53.905C54.0378 54.2966 54.5664 54.3064 54.7719 53.954L56.0249 51.8788L58.4622 52.5004C58.844 52.5983 59.2306 52.2214 59.0397 51.7858L56.7737 46.0889C57.1163 46.035 57.454 45.8784 57.7966 45.5015C59.0055 44.1752 57.7379 42.9272 58.149 41.9972C58.6629 40.8324 60.3367 41.1114 60.4982 39.3935C60.601 38.3167 59.9843 37.8126 59.3872 37.3134C59.074 37.054 58.7706 36.7995 58.7069 36.501C58.5307 35.6934 60.0235 34.6705 59.2159 33.2365C58.3545 31.7046 56.6807 32.4534 56.0885 31.9003C55.4767 31.3277 56.1766 29.6636 54.6398 28.9197C53.1079 28.1758 52.1339 29.7126 51.2725 29.5902C50 29.4091 49.8091 27.7255 48.1157 28.0387C46.3489 28.3667 46.6621 30.0699 45.6588 30.6327C44.7729 31.1319 43.4221 29.9867 42.2132 31.313C41.0532 32.5855 42.3649 33.7014 41.9 34.7194C41.4056 35.806 39.678 35.6347 39.5115 37.426C39.4137 38.4587 40.0108 38.9285 40.5981 39.3935C40.9113 39.6382 41.2197 39.8829 41.2833 40.1961C41.4595 41.0526 40.0108 42.1196 40.8428 43.5879C41.665 45.0415 43.1872 44.2927 43.843 44.8359L40.97 51.7956C40.7743 52.2263 41.156 52.6081 41.5476 52.5102L43.9849 51.8886L45.2379 53.9638C45.4434 54.3113 45.972 54.3064 46.1384 53.9148L48.9967 47.2831L48.982 47.2733ZM46.9166 38.7817L49.1337 41.0869C49.354 41.3169 49.7308 41.2876 49.9119 41.0233L53.1323 36.3346C53.289 36.1045 53.2302 35.7913 53.0002 35.6347C52.7702 35.4781 52.4569 35.5368 52.3003 35.7668L49.4323 39.9465L47.6458 38.0867C47.455 37.886 47.1368 37.8811 46.9362 38.072C46.7355 38.2629 46.7306 38.581 46.9215 38.7817H46.9166Z" fill="black"/>
<path fill-rule="evenodd" clip-rule="evenodd" d="M53.3477 63.6104L51.6053 66.7623L58.9957 70.8442L60.7381 67.6922L53.3477 63.6104ZM54.4342 63.0574C54.6202 58.8776 57.5029 55.9117 61.4869 54.8398C61.575 54.8154 61.6631 54.7664 61.7267 54.693L65.647 50.4105C65.8673 50.1707 66.1658 50.0434 66.4693 50.0288C66.7433 50.019 67.1104 50.1169 67.3062 50.3224C67.5558 50.5427 67.6928 50.8412 67.7026 51.1593C67.7124 51.4334 67.6145 51.8005 67.409 51.9963L67.3943 52.0158L62.6664 57.1842C62.4804 57.3898 62.4951 57.7079 62.6958 57.8939C62.9013 58.0799 63.2195 58.0652 63.4054 57.8645L68.1186 52.7157C68.5249 52.3144 68.7255 51.6683 68.706 51.1251C68.6815 50.572 68.4515 50.0288 68.0159 49.6225L67.6047 49.3191L67.7075 44.1997C67.7271 43.3627 68.0746 42.193 69.0534 42.2175C70.0519 42.242 70.7762 43.0838 70.7909 44.0577L70.9916 56.4452C71.0112 57.796 67.8103 60.1599 64.6926 62.4651C63.2733 63.5125 61.8735 64.5452 60.7674 65.4996C60.7087 65.5485 60.6695 65.6073 60.6353 65.6758L60.3416 66.3316L54.4342 63.0671V63.0574ZM50.4796 66.7183L52.7065 62.6854C52.8387 62.4407 53.147 62.3526 53.3917 62.4847L53.4603 62.5239C53.6413 60.5368 54.3853 58.7944 55.5599 57.3751C56.9107 55.7404 58.8244 54.5462 61.0856 53.9099L64.9031 49.74C65.3534 49.2506 65.9798 49.0059 66.6063 49.0303C66.6406 47.4152 66.6455 45.7805 66.7042 44.1703C66.7482 42.7314 67.453 41.1652 69.0828 41.2044C70.6196 41.2386 71.7747 42.5209 71.7991 44.0333L71.9998 56.4207C72.0292 58.2903 68.6179 60.8109 65.2946 63.2629C63.9291 64.2711 62.5783 65.2696 61.5114 66.1799L61.2275 66.8064L61.668 67.0511C61.9127 67.1832 62.0008 67.4916 61.8686 67.7363L59.6417 71.7692C59.5096 72.0139 59.2013 72.102 58.9565 71.9698L50.6852 67.3986C50.4405 67.2664 50.3524 66.9581 50.4845 66.7134L50.4796 66.7183ZM39.6584 66.3218L45.5658 63.0574C45.3798 58.8776 42.4971 55.9117 38.5131 54.8398C38.425 54.8154 38.3369 54.7664 38.2733 54.693L34.353 50.4105C33.6531 49.6519 32.3414 50.0875 32.2974 51.1593C32.2827 51.4628 32.3855 51.7711 32.6057 52.011L37.3336 57.1793C37.5196 57.3849 37.5049 57.703 37.3042 57.889C37.0987 58.075 36.7805 58.0652 36.5946 57.8596L31.8667 52.6913C30.9221 51.6586 31.1815 50.0043 32.3953 49.3093L32.2925 44.1899C32.2729 43.353 31.9254 42.1832 30.9417 42.2077C29.953 42.2322 29.2238 43.074 29.2091 44.0479L29.0084 56.4354C28.9888 57.7862 32.1897 60.1501 35.3074 62.4554C36.7267 63.5027 38.1265 64.5354 39.2326 65.4898C39.2913 65.5388 39.3305 65.5975 39.3647 65.666L39.6584 66.3218ZM47.2886 62.6854L49.5155 66.7183C49.6476 66.963 49.5595 67.2664 49.3148 67.4035L41.0435 71.9747C40.7987 72.1069 40.4953 72.0188 40.3583 71.7741L38.1314 67.7412C37.9992 67.4965 38.0873 67.193 38.332 67.056L38.7725 66.8113L38.4886 66.1848C37.4266 65.2745 36.0758 64.276 34.7054 63.2678C31.3821 60.8109 27.9708 58.2952 28.0002 56.4256L28.2009 44.0382C28.2253 42.516 29.3902 41.2386 30.927 41.2093C32.547 41.1799 33.2762 42.7754 33.2958 44.1752C33.2958 45.7805 33.3594 47.425 33.3937 49.0352C34.0202 49.0108 34.6466 49.2555 35.0969 49.7449L38.9144 53.9148C41.1756 54.5511 43.0893 55.7453 44.4401 57.38C45.6098 58.7993 46.3587 60.5417 46.5397 62.5288L46.6083 62.4896C46.853 62.3575 47.1564 62.4456 47.2935 62.6903L47.2886 62.6854ZM48.3898 66.7623L40.9994 70.8442L39.257 67.6922L46.6474 63.6104L48.3898 66.7623ZM53.7001 34.695C51.6543 32.6492 48.3408 32.6492 46.2999 34.695C44.2541 36.7408 44.2541 40.0542 46.2999 42.0951C48.3457 44.1409 51.6592 44.1409 53.7001 42.0951C55.7459 40.0493 55.7459 36.7359 53.7001 34.695ZM50 32.1548C46.5495 32.1548 43.7549 34.9495 43.7549 38.3999C43.7549 41.8504 46.5495 44.6451 50 44.6451C53.4505 44.6451 56.2451 41.8504 56.2451 38.3999C56.2451 34.9495 53.4505 32.1548 50 32.1548ZM52.638 48.5017L54.4097 52.6081L55.3543 51.037C55.4718 50.8412 55.7018 50.758 55.9123 50.8118L57.7574 51.2817L55.6676 46.0301C55.2467 45.9714 54.7915 45.9225 54.351 46.1721C53.4064 46.7055 53.5386 47.9291 52.638 48.5066V48.5017ZM44.3079 46.3042C44.4352 46.9258 44.6554 47.5082 45.4189 47.8802C46.4516 48.3843 47.0732 47.8606 47.8025 47.4593L45.5854 52.6081L44.6408 51.0419C44.5233 50.8461 44.2933 50.7629 44.0828 50.8167L42.2572 51.2817L44.3079 46.314V46.3042ZM44.6408 44.2046C44.8218 44.2829 44.9344 44.4591 44.9393 44.6499C45.1008 44.9876 45.1644 45.3547 45.2232 45.7267C45.3064 46.2357 45.3945 46.7496 45.8545 46.9747C46.7355 47.4054 47.3865 46.0106 48.8988 46.2161C50.3622 46.4168 50.6852 47.9781 51.757 47.7725H51.7717C51.8158 47.748 51.8647 47.7382 51.9088 47.7285C52.2465 47.5963 52.3982 47.2635 52.5548 46.8964C52.8044 46.3336 53.0736 45.7218 53.8518 45.2862C55.3005 44.4738 56.387 45.5456 57.0429 44.8212C57.7868 43.999 56.622 42.9272 57.2191 41.5861C57.8945 40.064 59.397 40.2647 59.49 39.2956C59.5879 38.2384 57.9875 37.9839 57.7085 36.7065C57.4295 35.4291 58.7852 34.5384 58.3203 33.721C57.7917 32.7813 56.3528 33.5301 55.3837 32.6247C54.3951 31.6997 55.0754 30.2461 54.1797 29.8154C53.2596 29.37 52.4129 30.76 51.111 30.574C49.4665 30.3391 49.2267 28.8365 48.2723 29.0127C47.1956 29.2134 47.4843 30.7355 46.1237 31.499C44.8512 32.2136 43.6766 31.1564 42.9278 31.9786C42.2621 32.7079 43.4319 33.7112 42.7858 35.1257C42.1251 36.5744 40.5834 36.4178 40.4806 37.5043C40.3876 38.488 41.9734 38.6789 42.2377 39.9808C42.5068 41.2876 41.1903 42.1979 41.6895 43.0838C42.1887 43.9647 43.6374 43.1376 44.6212 44.2095L44.6408 44.2046ZM48.982 47.2733C49.2903 47.3859 49.5448 47.6404 49.7944 47.89C50.2937 48.3843 50.7831 48.8688 51.669 48.8003L53.8714 53.905C54.0378 54.2966 54.5664 54.3064 54.7719 53.954L56.0249 51.8788L58.4622 52.5004C58.844 52.5983 59.2306 52.2214 59.0397 51.7858L56.7737 46.0889C57.1163 46.035 57.454 45.8784 57.7966 45.5015C59.0055 44.1752 57.7379 42.9272 58.149 41.9972C58.6629 40.8324 60.3367 41.1114 60.4982 39.3935C60.601 38.3167 59.9843 37.8126 59.3872 37.3134C59.074 37.054 58.7706 36.7995 58.7069 36.501C58.5307 35.6934 60.0235 34.6705 59.2159 33.2365C58.3545 31.7046 56.6807 32.4534 56.0885 31.9003C55.4767 31.3277 56.1766 29.6636 54.6398 28.9197C53.1079 28.1758 52.1339 29.7126 51.2725 29.5902C50 29.4091 49.8091 27.7255 48.1157 28.0387C46.3489 28.3667 46.6621 30.0699 45.6588 30.6327C44.7729 31.1319 43.4221 29.9867 42.2132 31.313C41.0532 32.5855 42.3649 33.7014 41.9 34.7194C41.4056 35.806 39.678 35.6347 39.5115 37.426C39.4137 38.4587 40.0108 38.9285 40.5981 39.3935C40.9113 39.6382 41.2197 39.8829 41.2833 40.1961C41.4595 41.0526 40.0108 42.1196 40.8428 43.5879C41.665 45.0415 43.1872 44.2927 43.843 44.8359L40.97 51.7956C40.7743 52.2263 41.156 52.6081 41.5476 52.5102L43.9849 51.8886L45.2379 53.9638C45.4434 54.3113 45.972 54.3064 46.1384 53.9148L48.9967 47.2831L48.982 47.2733ZM46.9166 38.7817L49.1337 41.0869C49.354 41.3169 49.7308 41.2876 49.9119 41.0233L53.1323 36.3346C53.289 36.1045 53.2302 35.7913 53.0002 35.6347C52.7702 35.4781 52.4569 35.5368 52.3003 35.7668L49.4323 39.9465L47.6458 38.0867C47.455 37.886 47.1368 37.8811 46.9362 38.072C46.7355 38.2629 46.7306 38.581 46.9215 38.7817H46.9166Z" stroke="black" stroke-width="0.2" mask="url(#path-3-outside-1_1_8532)"/>
<defs>
<filter id="filter0_d_1_8532" x="4" y="9" width="92" height="91" filterUnits="userSpaceOnUse" color-interpolation-filters="sRGB">
<feFlood flood-opacity="0" result="BackgroundImageFix"/>
<feColorMatrix in="SourceAlpha" type="matrix" values="0 0 0 0 0 0 0 0 0 0 0 0 0 0 0 0 0 0 127 0" result="hardAlpha"/>
<feOffset dy="4"/>
<feGaussianBlur stdDeviation="2"/>
<feComposite in2="hardAlpha" operator="out"/>
<feColorMatrix type="matrix" values="0 0 0 0 0 0 0 0 0 0 0 0 0 0 0 0 0 0 0.25 0"/>
<feBlend mode="normal" in2="BackgroundImageFix" result="effect1_dropShadow_1_8532"/>
<feBlend mode="normal" in="SourceGraphic" in2="effect1_dropShadow_1_8532" result="shape"/>
</filter>
</defs>
</svg>
