<svg width="18" height="19" viewBox="0 0 18 19" fill="none" xmlns="http://www.w3.org/2000/svg">
<g clip-path="url(#clip0_1_4206)">
<path d="M3.79492 0.729492C4.48822 0.689209 5.15592 0.951518 5.63867 1.43848L7.26562 3.07324C7.72091 3.53065 7.97087 4.1393 7.96875 4.78516C7.96683 5.35019 7.77205 5.88493 7.41406 6.31348L7.25098 6.49023L6.82129 6.91602C6.49818 7.23559 6.45881 7.73774 6.72852 8.11035C7.84159 9.65221 9.18762 11.005 10.7295 12.126C11.1091 12.4022 11.6156 12.3651 11.9385 12.0459V12.0449L12.3701 11.6191C13.3168 10.6852 14.8544 10.6898 15.793 11.6348L17.4219 13.2695C17.907 13.7549 18.1613 14.4283 18.1211 15.1123C18.0859 15.7113 17.8252 16.2761 17.4004 16.6943L17.208 16.8643L16.1211 17.7227C15.0663 18.5557 13.7993 18.9766 12.5322 18.9766H12.4072V18.9717C11.3361 18.9482 10.2697 18.6255 9.33496 17.9932C7.70498 16.8917 6.14016 15.5885 4.68262 14.125C3.40542 12.8443 2.25569 11.4813 1.25586 10.0674L0.835938 9.45801C-0.558728 7.37713 -0.424434 4.65955 1.16602 2.69531L2.03613 1.62207C2.46795 1.08878 3.10921 0.763787 3.79492 0.729492ZM3.85352 2.23145C3.59605 2.24866 3.36764 2.36879 3.20703 2.56738L2.33496 3.6416C1.15973 5.09014 1.06142 7.09162 2.08691 8.62012C3.12674 10.1698 4.35664 11.6662 5.74902 13.0605C7.13967 14.4572 8.63005 15.6973 10.1797 16.7451C11.7086 17.7787 13.722 17.6977 15.1904 16.5381L16.2773 15.6797C16.484 15.5172 16.6061 15.2834 16.6221 15.0215C16.6379 14.7607 16.5429 14.5154 16.3584 14.3291V14.3301L14.7295 12.6943C14.3725 12.3358 13.7885 12.3361 13.4316 12.6895L13 13.1172C12.1483 13.9603 10.8225 14.0542 9.8457 13.3438C8.17793 12.1288 6.71769 10.6651 5.51074 8.99316C4.8045 8.01579 4.90995 6.68982 5.76562 5.84668L6.19531 5.4209C6.36841 5.24957 6.46387 5.02225 6.46582 4.78027L6.46094 4.68945C6.44065 4.48062 6.35039 4.28948 6.2002 4.1377V4.13672L4.57227 2.50293L4.50391 2.44043C4.33899 2.30453 4.13606 2.23145 3.9209 2.23145H3.85352Z" fill="#333333" stroke="#333333" stroke-width="0.25"/>
</g>
<defs>
<clipPath id="clip0_1_4206">
<rect width="18" height="18" fill="white" transform="translate(0 0.849609)"/>
</clipPath>
</defs>
</svg>
