<svg width="24" height="24" viewBox="0 0 24 24" fill="none" xmlns="http://www.w3.org/2000/svg">
<circle cx="12" cy="12" r="12" fill="#2179FF"/>
<path fill-rule="evenodd" clip-rule="evenodd" d="M13.7175 14.2206C13.5763 14.3618 13.4969 14.5533 13.4969 14.7531C13.4969 14.9528 13.5763 15.1443 13.7175 15.2856C13.8587 15.4268 14.0503 15.5061 14.25 15.5061C14.4497 15.5061 14.6413 15.4268 14.7825 15.2856L17.7825 12.2856C17.8528 12.2158 17.9086 12.1329 17.9467 12.0415C17.9847 11.9501 18.0043 11.8521 18.0043 11.7531C18.0043 11.6541 17.9847 11.556 17.9467 11.4646C17.9086 11.3732 17.8528 11.2903 17.7825 11.2206L14.7825 8.22057C14.6413 8.07934 14.4497 8 14.25 8C14.0503 8 13.8587 8.07934 13.7175 8.22057C13.5763 8.3618 13.4969 8.55334 13.4969 8.75307C13.4969 8.95279 13.5763 9.14434 13.7175 9.28557L15.5775 11.0031H6.75C6.55109 11.0031 6.36032 11.0821 6.21967 11.2227C6.07902 11.3634 6 11.5542 6 11.7531C6 11.952 6.07902 12.1427 6.21967 12.2834C6.36032 12.4241 6.55109 12.5031 6.75 12.5031H15.5775L13.7175 14.2206Z" fill="white"/>
</svg>
