<svg width="100" height="100" viewBox="0 0 100 100" fill="none" xmlns="http://www.w3.org/2000/svg">
<circle cx="50" cy="50" r="49" stroke="#A4EC18" stroke-width="2"/>
<g filter="url(#filter0_d_64_1796)">
<ellipse cx="50" cy="50.5" rx="42" ry="41.5" fill="#F9F9F9"/>
</g>
<path d="M71.1084 36.0044H67.7269L68.7196 34.2918C69.1341 33.5992 69.3631 32.8138 69.374 32.0011C69.4231 31.2867 69.085 30.6049 68.4905 30.2122C67.4051 29.585 65.8017 30.3922 64.8472 32.0502L62.5675 36.0044H28.5236C28.2345 36.0044 28 36.2389 28 36.528V70.2664C28 70.5555 28.2345 70.79 28.5236 70.79H71.1139C71.2502 70.79 71.3866 70.7355 71.4847 70.6373C71.5829 70.5391 71.6375 70.4082 71.6375 70.2664V36.528C71.6375 36.3916 71.5829 36.2553 71.4847 36.1571C71.3866 36.0589 71.2557 36.0044 71.1139 36.0044H71.1084ZM70.5903 37.0461V42.9691H63.7019L67.127 37.0406H70.5903V37.0461ZM55.6409 50.4957L57.348 51.4828L55.0573 53.4845L55.6409 50.4957ZM58.0461 50.6811L55.979 49.4867L64.1382 35.3554L66.2053 36.5498L58.0461 50.6811ZM65.7471 32.5738C66.4289 31.3958 67.4815 30.834 67.9669 31.1176C68.2287 31.3358 68.3651 31.6739 68.3269 32.0121C68.3105 32.6338 68.1305 33.2338 67.8087 33.7628L66.7234 35.6444L64.6563 34.45L65.7417 32.5684L65.7471 32.5738ZM61.9566 37.0461L58.5369 42.9691H29.0417V37.0461H61.9566ZM29.0417 69.7374V44.0218H57.937L54.8228 49.4212C54.7955 49.4703 54.7737 49.5249 54.7628 49.5848L53.7429 54.7771V54.788C53.7429 54.788 53.7374 54.8316 53.732 54.8534V54.8807C53.732 54.8807 53.732 54.9189 53.732 54.9407V54.9516C53.732 54.9516 53.7374 54.9898 53.7429 55.0116V55.0225C53.7429 55.0225 53.7592 55.0661 53.7701 55.0879V55.0988C53.7701 55.0988 53.7974 55.137 53.8083 55.1588V55.1697C53.8083 55.1697 53.8411 55.2079 53.8574 55.2243L53.8683 55.2352C53.8683 55.2352 53.901 55.2679 53.9174 55.2843H53.9229C53.9229 55.2843 53.961 55.317 53.9829 55.3279H53.9883C54.0101 55.3388 54.0265 55.3497 54.0483 55.3552C54.0483 55.3552 54.0865 55.3661 54.1028 55.377H54.1192C54.1192 55.377 54.1519 55.3879 54.1683 55.3879H54.1847C54.1847 55.3879 54.2228 55.3934 54.2446 55.3934H66.9634C67.2524 55.3934 67.487 55.1588 67.487 54.8752C67.487 54.5916 67.2524 54.3516 66.9634 54.3516H55.63L58.5697 51.7828C58.6133 51.7446 58.646 51.701 58.6787 51.6519L63.091 44.0163H70.5794V69.7374H29.0417ZM33.7649 41.7256C34.4575 41.7256 35.0847 41.3057 35.3465 40.6676C35.6138 40.024 35.4665 39.2877 34.9757 38.7968C34.4848 38.306 33.7485 38.1587 33.1049 38.426C32.4668 38.6878 32.0469 39.315 32.0469 40.0076C32.0469 40.9512 32.8159 41.7202 33.7594 41.7202L33.7649 41.7256ZM33.7649 39.3422C34.0376 39.3422 34.283 39.5059 34.3866 39.7567C34.4903 40.0076 34.4357 40.2967 34.2394 40.4876C34.0485 40.6785 33.7594 40.7385 33.5085 40.6348C33.2577 40.5312 33.094 40.2858 33.094 40.0131C33.094 39.6422 33.394 39.3422 33.7649 39.3422ZM39.2898 41.7256C39.9824 41.7256 40.6096 41.3057 40.8714 40.6676C41.1387 40.024 40.9914 39.2877 40.5006 38.7968C40.0097 38.306 39.2734 38.1587 38.6298 38.426C37.9917 38.6878 37.5718 39.315 37.5718 40.0076C37.5718 40.9512 38.3408 41.7202 39.2843 41.7202L39.2898 41.7256ZM39.2898 39.3422C39.5625 39.3422 39.8079 39.5059 39.9115 39.7567C40.0152 40.0076 39.9606 40.2967 39.7643 40.4876C39.5734 40.6785 39.2843 40.7385 39.0334 40.6348C38.7826 40.5312 38.6189 40.2858 38.6189 40.0131C38.6189 39.6422 38.9189 39.3422 39.2898 39.3422ZM44.8092 41.7256C45.5019 41.7256 46.1291 41.3057 46.3909 40.6676C46.6581 40.024 46.5109 39.2877 46.02 38.7968C45.5292 38.306 44.7929 38.1587 44.1493 38.426C43.5112 38.6878 43.0912 39.315 43.0912 40.0076C43.0912 40.9512 43.8548 41.7202 44.8038 41.7202L44.8092 41.7256ZM44.8092 39.3422C45.0819 39.3422 45.3274 39.5059 45.431 39.7567C45.5346 40.0076 45.4801 40.2967 45.2837 40.4876C45.0928 40.6785 44.8038 40.7385 44.5529 40.6348C44.302 40.5312 44.1384 40.2858 44.1384 40.0131C44.1384 39.6422 44.4384 39.3422 44.8092 39.3422ZM32.6577 53.9153H50.3832C50.5196 53.9153 50.6559 53.8608 50.7541 53.7626C50.8523 53.6644 50.9068 53.5281 50.9068 53.3917V46.9506C50.9068 46.6615 50.6723 46.427 50.3832 46.427H32.6577C32.3687 46.427 32.1396 46.6615 32.1396 46.9506V53.3917C32.1396 53.5281 32.1941 53.6644 32.2923 53.7626C32.3905 53.8608 32.5214 53.9153 32.6632 53.9208L32.6577 53.9153ZM33.1813 47.4741H49.8651V52.8736H33.1813V47.4741ZM67.4924 46.9506C67.4924 47.2396 67.2579 47.4741 66.9743 47.4741H63.6419C63.3528 47.4741 63.1183 47.2396 63.1183 46.9506C63.1183 46.6615 63.3528 46.427 63.6419 46.427H66.9743C67.1106 46.427 67.247 46.4815 67.3452 46.5797C67.4433 46.6779 67.4979 46.8088 67.4979 46.9506H67.4924ZM67.4924 50.9156C67.4924 51.2047 67.2579 51.4392 66.9743 51.4392H62.1802C61.8912 51.4392 61.6566 51.2047 61.6566 50.9156C61.6566 50.6266 61.8912 50.3975 62.1802 50.3975H66.9743C67.2633 50.3975 67.4924 50.632 67.4924 50.9156ZM67.4924 58.8403C67.4924 59.1293 67.2579 59.3639 66.9743 59.3639H32.6577C32.3741 59.353 32.1505 59.1239 32.1505 58.8403C32.1505 58.5567 32.3741 58.3276 32.6577 58.3167H66.9688C67.1052 58.3167 67.2415 58.3712 67.3397 58.4694C67.4379 58.5676 67.4924 58.6985 67.4924 58.8403ZM67.4924 62.8053C67.4924 63.0944 67.2579 63.3289 66.9743 63.3289H32.6577C32.3687 63.3289 32.1341 63.0944 32.1341 62.8053C32.1341 62.5163 32.3687 62.2818 32.6577 62.2818H66.9688C67.2579 62.2818 67.4924 62.5163 67.4924 62.8053ZM67.4924 66.7649C67.4924 67.054 67.2579 67.2885 66.9743 67.2885H32.6577C32.3687 67.2885 32.1341 67.054 32.1341 66.7649C32.1341 66.4759 32.3687 66.2468 32.6577 66.2468H66.9688C67.1052 66.2468 67.2415 66.3013 67.3397 66.3995C67.4379 66.4977 67.4924 66.6286 67.4924 66.7704V66.7649Z" fill="black"/>
<defs>
<filter id="filter0_d_64_1796" x="4" y="9" width="92" height="91" filterUnits="userSpaceOnUse" color-interpolation-filters="sRGB">
<feFlood flood-opacity="0" result="BackgroundImageFix"/>
<feColorMatrix in="SourceAlpha" type="matrix" values="0 0 0 0 0 0 0 0 0 0 0 0 0 0 0 0 0 0 127 0" result="hardAlpha"/>
<feOffset dy="4"/>
<feGaussianBlur stdDeviation="2"/>
<feComposite in2="hardAlpha" operator="out"/>
<feColorMatrix type="matrix" values="0 0 0 0 0 0 0 0 0 0 0 0 0 0 0 0 0 0 0.25 0"/>
<feBlend mode="normal" in2="BackgroundImageFix" result="effect1_dropShadow_64_1796"/>
<feBlend mode="normal" in="SourceGraphic" in2="effect1_dropShadow_64_1796" result="shape"/>
</filter>
</defs>
</svg>
