<svg width="47" height="63" viewBox="0 0 47 63" fill="none" xmlns="http://www.w3.org/2000/svg">
<g clip-path="url(#clip0_1_4287)">
<path d="M37.4264 0C42.6003 0.004276 46.792 3.99521 46.7965 8.92116H9.37008V45.4752C9.37457 45.6591 9.22187 45.8102 9.02875 45.8145C9.02276 45.8145 9.01827 45.8145 9.01228 45.8145H0.3563C0.164676 45.8187 0.00449117 45.6748 0 45.4923C0 45.4866 0 45.4809 0 45.4752V8.92116C0.00449117 3.99521 4.19625 0.004276 9.37008 0H37.4264ZM37.4264 53.4742H0C0.00449117 58.4001 4.19625 62.3911 9.37008 62.3954H37.4264C42.6003 62.3911 46.792 58.4001 46.7965 53.4742V16.8717C46.7995 16.6878 46.6468 16.5367 46.4537 16.5339C46.4492 16.5339 46.4432 16.5339 46.4387 16.5339H37.7827C37.5911 16.5296 37.4309 16.6735 37.4264 16.856C37.4264 16.8617 37.4264 16.8674 37.4264 16.8731V53.4756V53.4742Z" fill="#0CAA41"/>
</g>
<defs>
<clipPath id="clip0_1_4287">
<rect width="46.7965" height="62.3954" fill="white"/>
</clipPath>
</defs>
</svg>
