<svg width="100" height="100" viewBox="0 0 100 100" fill="none" xmlns="http://www.w3.org/2000/svg">
<circle cx="50" cy="50" r="49" stroke="#A4EC18" stroke-width="2"/>
<g filter="url(#filter0_d_1_4105)">
<ellipse cx="50" cy="50.5" rx="42" ry="41.5" fill="#F9F9F9"/>
</g>
<g clip-path="url(#clip0_1_4105)">
<path d="M68.9 40.8571H67.507L67.997 40.3429C68.179 40.15 68.242 39.8714 68.158 39.6143C68.074 39.3571 67.857 39.1786 67.598 39.1357L65.064 38.7429L63.93 36.2643C63.818 36.0143 63.566 35.85 63.293 35.85C63.02 35.85 62.775 36.0071 62.656 36.2643L61.522 38.7429L58.988 39.1357C58.729 39.1786 58.512 39.3571 58.428 39.6143C58.344 39.8714 58.407 40.15 58.589 40.3429L59.079 40.8571H49.601C48.362 36.2714 44.204 33 39.5 33C33.711 33 29 37.8071 29 43.7143C29 47.9571 31.513 51.8286 35.3 53.5214V63.7143C35.3 64.8929 36.245 65.8571 37.4 65.8571H60.5L65.54 72.7143C65.673 72.9 65.883 73 66.1 73C66.177 73 66.247 72.9857 66.324 72.9643C66.611 72.8643 66.8 72.5929 66.8 72.2857V65.8571H68.9C70.055 65.8571 71 64.8929 71 63.7143V43C71 41.8214 70.055 40.8571 68.9 40.8571ZM62.11 40.1C62.341 40.0643 62.537 39.9143 62.635 39.7L63.293 38.2571L63.951 39.7C64.049 39.9143 64.245 40.0643 64.476 40.1L66.03 40.3429L65.337 41.0714L64.889 41.5429C64.735 41.7071 64.665 41.9357 64.7 42.1571L64.966 43.8071L63.629 43.0571C63.524 43 63.405 42.9714 63.293 42.9714C63.181 42.9714 63.062 43 62.957 43.0571L61.62 43.8071L61.886 42.1571C61.921 41.9357 61.851 41.7071 61.697 41.5429L61.249 41.0714L60.556 40.3429L62.11 40.1ZM30.4 43.7143C30.4 38.5929 34.481 34.4286 39.5 34.4286C43.742 34.4286 47.48 37.4929 48.39 41.7214C48.53 42.3714 48.6 43.0429 48.6 43.7143C48.6 48.8357 44.519 53 39.5 53C39.192 53 38.884 52.9786 38.576 52.95C37.827 52.8714 37.092 52.7 36.378 52.4286C36.336 52.4143 36.294 52.4 36.245 52.3857C32.745 51.0214 30.393 47.5357 30.393 43.7143H30.4ZM52.1 64.4286V63C52.1 62.2286 52.408 61.4929 52.94 60.9571C54.095 61.7571 55.705 61.7571 56.86 60.9571C56.86 60.9571 56.874 60.9714 56.881 60.9786C57.406 61.5214 57.7 62.2429 57.7 63.0071V64.4357H52.1V64.4286ZM69.6 63.7143C69.6 64.1071 69.285 64.4286 68.9 64.4286H66.1C65.715 64.4286 65.4 64.75 65.4 65.1429V70.1429L61.41 64.7143C61.277 64.5357 61.067 64.4286 60.85 64.4286H59.1V63C59.1 61.8571 58.666 60.7857 57.861 59.9571C57.665 59.7643 57.462 59.5929 57.259 59.45C56.986 59.2571 56.615 59.2857 56.37 59.5214C55.565 60.3214 54.228 60.3214 53.423 59.5214C53.185 59.2857 52.814 59.25 52.541 59.4429C51.386 60.25 50.693 61.5786 50.693 63V64.4286H37.4C37.015 64.4286 36.7 64.1071 36.7 63.7143V54.0429C36.966 54.1214 37.239 54.1786 37.512 54.2357C37.589 54.25 37.659 54.2643 37.736 54.2714C37.953 54.3071 38.17 54.3429 38.387 54.3643C38.471 54.3714 38.548 54.3857 38.632 54.3929C38.919 54.4143 39.206 54.4357 39.5 54.4357C45.289 54.4357 50 49.6286 50 43.7214C50 43.3786 49.979 43.0286 49.944 42.6857C49.944 42.6143 49.93 42.5429 49.923 42.4786C49.923 42.4143 49.916 42.3571 49.902 42.2929H60.444L60.003 45.0357C59.961 45.3071 60.073 45.5786 60.29 45.7357C60.507 45.8929 60.801 45.9071 61.032 45.7786L63.293 44.5071L65.554 45.7786C65.61 45.8071 65.666 45.8357 65.729 45.85C65.75 45.85 65.771 45.85 65.799 45.8571C65.834 45.8571 65.862 45.8714 65.897 45.8714H65.911C65.96 45.8714 66.002 45.8571 66.051 45.85C66.072 45.85 66.093 45.85 66.114 45.8357C66.177 45.8143 66.24 45.7857 66.303 45.7429C66.52 45.5857 66.632 45.3143 66.59 45.0429L66.149 42.3H68.9C69.285 42.3 69.6 42.6214 69.6 43.0143V63.7286V63.7143Z" fill="#333333"/>
<path d="M39.4999 47.0071L42.3629 49.9285C42.5029 50.0714 42.6779 50.1357 42.8599 50.1357C43.0419 50.1357 43.2169 50.0642 43.3569 49.9285L45.5969 47.6428C45.8699 47.3642 45.8699 46.9142 45.5969 46.6357L42.7339 43.7142L45.5969 40.7928C45.8699 40.5142 45.8699 40.0642 45.5969 39.7857L43.3569 37.4999C43.0839 37.2214 42.6429 37.2214 42.3699 37.4999L39.5069 40.4214L36.6439 37.4999C36.3709 37.2214 35.9299 37.2214 35.6569 37.4999L33.4169 39.7857C33.1439 40.0642 33.1439 40.5142 33.4169 40.7928L36.2799 43.7142L33.4169 46.6357C33.1439 46.9142 33.1439 47.3642 33.4169 47.6428L35.6569 49.9285C35.9299 50.2071 36.3709 50.2071 36.6439 49.9285L39.5069 47.0071H39.4999ZM34.8869 47.1428L37.7499 44.2214C38.0229 43.9428 38.0229 43.4928 37.7499 43.2142L34.8869 40.2928L36.1399 39.0142L39.0029 41.9357C39.2759 42.2142 39.7169 42.2142 39.9899 41.9357L42.8529 39.0142L44.1059 40.2928L41.2429 43.2142C40.9699 43.4928 40.9699 43.9428 41.2429 44.2214L44.1059 47.1428L42.8529 48.4214L39.9899 45.4999C39.8499 45.3571 39.6749 45.2928 39.4929 45.2928C39.3109 45.2928 39.1359 45.3642 38.9959 45.4999L36.1329 48.4214L34.8799 47.1428H34.8869Z" fill="#333333"/>
<path d="M54.8999 51.5715C52.9679 51.5715 51.3999 53.1715 51.3999 55.143C51.3999 56.1144 51.7709 57.0144 52.4499 57.693C53.1149 58.3501 53.9829 58.7144 54.8999 58.7144C55.8169 58.7144 56.6849 58.3501 57.3499 57.693C58.0289 57.0215 58.3999 56.1144 58.3999 55.143C58.3999 53.1715 56.8319 51.5715 54.8999 51.5715ZM56.3699 56.6644C55.5649 57.4644 54.2279 57.4644 53.4229 56.6644C53.0169 56.2644 52.7929 55.7215 52.7929 55.143C52.7929 53.9644 53.7379 53.0001 54.8929 53.0001C56.0479 53.0001 56.9929 53.9644 56.9929 55.143C56.9929 55.7215 56.7689 56.2644 56.3629 56.6644H56.3699Z" fill="#333333"/>
<path d="M63.3001 51.5714H66.1001C66.4851 51.5714 66.8001 51.25 66.8001 50.8571C66.8001 50.4643 66.4851 50.1428 66.1001 50.1428H63.3001C62.9151 50.1428 62.6001 50.4643 62.6001 50.8571C62.6001 51.25 62.9151 51.5714 63.3001 51.5714Z" fill="#333333"/>
<path d="M66.8 53.7144H61.2C60.815 53.7144 60.5 54.0358 60.5 54.4286C60.5 54.8215 60.815 55.1429 61.2 55.1429H66.8C67.185 55.1429 67.5 54.8215 67.5 54.4286C67.5 54.0358 67.185 53.7144 66.8 53.7144Z" fill="#333333"/>
<path d="M66.8 57.2856H61.2C60.815 57.2856 60.5 57.6071 60.5 57.9999C60.5 58.3928 60.815 58.7142 61.2 58.7142H66.8C67.185 58.7142 67.5 58.3928 67.5 57.9999C67.5 57.6071 67.185 57.2856 66.8 57.2856Z" fill="#333333"/>
<path d="M40.9001 57.2856H38.8001C38.4151 57.2856 38.1001 57.6071 38.1001 57.9999C38.1001 58.3928 38.4151 58.7142 38.8001 58.7142H40.9001C41.2851 58.7142 41.6001 58.3928 41.6001 57.9999C41.6001 57.6071 41.2851 57.2856 40.9001 57.2856Z" fill="#333333"/>
<path d="M47.9 57.2856H43.7C43.315 57.2856 43 57.6071 43 57.9999C43 58.3928 43.315 58.7142 43.7 58.7142H47.9C48.285 58.7142 48.6 58.3928 48.6 57.9999C48.6 57.6071 48.285 57.2856 47.9 57.2856Z" fill="#333333"/>
<path d="M47.9001 60.1428H42.3001C41.9151 60.1428 41.6001 60.4643 41.6001 60.8571C41.6001 61.25 41.9151 61.5714 42.3001 61.5714H47.9001C48.2851 61.5714 48.6001 61.25 48.6001 60.8571C48.6001 60.4643 48.2851 60.1428 47.9001 60.1428Z" fill="#333333"/>
</g>
<defs>
<filter id="filter0_d_1_4105" x="4" y="9" width="92" height="91" filterUnits="userSpaceOnUse" color-interpolation-filters="sRGB">
<feFlood flood-opacity="0" result="BackgroundImageFix"/>
<feColorMatrix in="SourceAlpha" type="matrix" values="0 0 0 0 0 0 0 0 0 0 0 0 0 0 0 0 0 0 127 0" result="hardAlpha"/>
<feOffset dy="4"/>
<feGaussianBlur stdDeviation="2"/>
<feComposite in2="hardAlpha" operator="out"/>
<feColorMatrix type="matrix" values="0 0 0 0 0 0 0 0 0 0 0 0 0 0 0 0 0 0 0.25 0"/>
<feBlend mode="normal" in2="BackgroundImageFix" result="effect1_dropShadow_1_4105"/>
<feBlend mode="normal" in="SourceGraphic" in2="effect1_dropShadow_1_4105" result="shape"/>
</filter>
<clipPath id="clip0_1_4105">
<rect width="42" height="40" fill="white" transform="translate(29 33)"/>
</clipPath>
</defs>
</svg>
