<svg width="42" height="63" viewBox="0 0 42 63" fill="none" xmlns="http://www.w3.org/2000/svg">
<path d="M19.708 56.0557V33.2823C20.3514 33.34 20.9661 33.3715 21.6095 33.3715C24.6761 33.3715 27.5631 32.5371 30.0149 31.0503V56.0522C30.0149 58.1862 29.5222 59.7658 28.574 60.8188C27.6257 61.8684 26.3642 62.3932 24.8301 62.3932C23.296 62.3932 22.1294 61.8684 21.1473 60.7891C20.199 59.7378 19.7063 58.1565 19.7063 56.0539" fill="#003A9B"/>
<path d="M19.7678 1.4726C26.148 -0.850392 33.4173 -0.726196 38.8764 4.03873C39.8923 4.99731 41.0556 6.20604 41.5162 7.62817C42.0699 9.42114 39.5858 7.43925 39.2455 7.19611C37.4659 6.01887 35.6879 5.0288 33.6966 4.3466C22.9613 1.0073 12.8034 7.04043 6.48917 16.4163C3.85274 20.5638 2.13238 24.9229 0.72019 29.7193C0.569489 30.2493 0.444187 30.9298 0.164797 31.3898C-0.111206 31.9216 0.0428817 29.9712 0.0428817 29.9065C0.254541 27.9281 0.657539 26.0092 1.14859 24.0903C4.0644 13.8782 10.5039 5.3699 19.7678 1.4726Z" fill="#003A9B"/>
<path d="M28.0813 26.8136C24.2477 28.7938 19.5523 27.2492 17.6185 23.3799C15.6543 19.5106 17.1918 14.7789 21.0237 12.8285C24.859 10.8483 29.5561 12.3947 31.4864 16.264C33.4506 20.1315 31.9182 24.865 28.0813 26.8136Z" fill="#003A9B"/>
</svg>
