<svg width="64" height="63" viewBox="0 0 64 63" fill="none" xmlns="http://www.w3.org/2000/svg">
<path d="M32.0043 0.127197C18.98 0.127197 15.1705 0.140445 14.4305 0.201718C11.7584 0.423624 10.0946 0.844252 8.28173 1.74678C6.88609 2.44065 5.78349 3.24382 4.69744 4.37157C2.71739 6.42834 1.51876 8.95707 1.08335 11.9627C0.873094 13.4217 0.811839 13.7181 0.798594 21.1718C0.793627 23.6575 0.798594 26.9265 0.798594 31.3116C0.798594 44.3296 0.813494 48.1351 0.87475 48.8753C1.08997 51.4769 1.4989 53.1131 2.3631 54.9049C4.01369 58.3328 7.16588 60.9046 10.881 61.8651C12.1673 62.1963 13.5878 62.3785 15.4106 62.4646C16.1837 62.4977 24.0576 62.5226 31.938 62.5226C39.8185 62.5226 47.6973 62.5126 48.4506 62.4745C50.5615 62.3752 51.7882 62.2112 53.1441 61.8601C56.8824 60.8947 59.9766 58.361 61.662 54.885C62.5097 53.1379 62.9384 51.4388 63.1321 48.973C63.1752 48.4348 63.1917 39.8633 63.1917 31.305C63.1917 22.7467 63.1719 14.1884 63.1305 13.6502C62.9335 11.1447 62.5047 9.4605 61.6305 7.67863C60.9137 6.22133 60.1174 5.13168 58.9601 4.01883C56.8956 2.04652 54.3726 0.847564 51.3644 0.413688C49.9075 0.203374 49.6161 0.140445 42.1595 0.127197L32.0043 0.127197Z" fill="url(#paint0_radial_1_4223)"/>
<path d="M32.0043 0.127197C18.98 0.127197 15.1705 0.140445 14.4305 0.201718C11.7584 0.423624 10.0946 0.844252 8.28173 1.74678C6.88609 2.44065 5.78349 3.24382 4.69744 4.37157C2.71739 6.42834 1.51876 8.95707 1.08335 11.9627C0.873094 13.4217 0.811839 13.7181 0.798594 21.1718C0.793627 23.6575 0.798594 26.9265 0.798594 31.3116C0.798594 44.3296 0.813494 48.1351 0.87475 48.8753C1.08997 51.4769 1.4989 53.1131 2.3631 54.9049C4.01369 58.3328 7.16588 60.9046 10.881 61.8651C12.1673 62.1963 13.5878 62.3785 15.4106 62.4646C16.1837 62.4977 24.0576 62.5226 31.938 62.5226C39.8185 62.5226 47.6973 62.5126 48.4506 62.4745C50.5615 62.3752 51.7882 62.2112 53.1441 61.8601C56.8824 60.8947 59.9766 58.361 61.662 54.885C62.5097 53.1379 62.9384 51.4388 63.1321 48.973C63.1752 48.4348 63.1917 39.8633 63.1917 31.305C63.1917 22.7467 63.1719 14.1884 63.1305 13.6502C62.9335 11.1447 62.5047 9.4605 61.6305 7.67863C60.9137 6.22133 60.1174 5.13168 58.9601 4.01883C56.8956 2.04652 54.3726 0.847564 51.3644 0.413688C49.9075 0.203374 49.6161 0.140445 42.1595 0.127197L32.0043 0.127197Z" fill="url(#paint1_radial_1_4223)"/>
<path d="M31.9893 8.28608C25.7329 8.28608 24.9482 8.31423 22.4913 8.42519C20.0394 8.53779 18.3657 8.9253 16.9005 9.49497C15.3857 10.0829 14.1009 10.8711 12.8195 12.1512C11.5381 13.4313 10.7517 14.718 10.1607 16.2316C9.58954 17.6972 9.20048 19.3714 9.09122 21.824C8.98195 24.2815 8.95215 25.0681 8.95215 31.3246C8.95215 37.581 8.98029 38.3643 9.09122 40.8218C9.20379 43.2744 9.59285 44.9486 10.1607 46.4142C10.7501 47.9294 11.5365 49.2145 12.8179 50.4963C14.0976 51.778 15.3823 52.5663 16.8972 53.1558C18.3624 53.7255 20.0378 54.1147 22.488 54.2256C24.9449 54.3382 25.7296 54.3647 31.9843 54.3647C38.239 54.3647 39.0238 54.3366 41.4806 54.2256C43.9325 54.113 45.6079 53.7255 47.0748 53.1558C48.5896 52.5679 49.8727 51.778 51.1524 50.4963C52.4338 49.2162 53.2202 47.9294 53.8112 46.4158C54.3774 44.9503 54.7665 43.276 54.8807 40.8235C54.9917 38.3659 55.0198 37.5827 55.0198 31.3246C55.0198 25.0665 54.9917 24.2815 54.8807 21.824C54.7648 19.3714 54.3774 17.6972 53.8112 16.2316C53.2202 14.7164 52.4338 13.4313 51.1524 12.1496C49.871 10.8678 48.5896 10.0812 47.0731 9.49332C45.6046 8.92365 43.9292 8.53448 41.4773 8.42353C39.0205 8.31092 38.2374 8.28442 31.981 8.28442H31.9893V8.28608ZM29.9231 12.4394H31.9893C38.1397 12.4394 38.8681 12.4609 41.2969 12.5718C43.5435 12.6745 44.7619 13.0504 45.5732 13.3651C46.6476 13.7824 47.4142 14.2825 48.2204 15.089C49.0267 15.8955 49.525 16.6639 49.9439 17.7386C50.2584 18.5501 50.6342 19.7689 50.7369 22.0161C50.8478 24.4455 50.871 25.1741 50.871 31.3229C50.871 37.4717 50.8478 38.202 50.7369 40.6297C50.6342 42.8769 50.2584 44.0958 49.9439 44.9072C49.5266 45.982 49.0267 46.7487 48.2204 47.5535C47.4142 48.36 46.6493 48.8585 45.5732 49.2774C44.7619 49.5937 43.5418 49.968 41.2969 50.0707C38.8681 50.1816 38.1397 50.2048 31.9893 50.2048C25.8389 50.2048 25.1104 50.1816 22.6817 50.0707C20.4351 49.9663 19.2166 49.5921 18.4054 49.2758C17.3309 48.8585 16.5628 48.3583 15.7565 47.5519C14.9502 46.7454 14.4519 45.9787 14.0331 44.9039C13.7185 44.0924 13.3427 42.8736 13.2401 40.6264C13.1291 38.197 13.1076 37.4684 13.1076 31.3146C13.1076 25.1609 13.1291 24.4355 13.2401 22.0078C13.3427 19.7606 13.7185 18.5418 14.0331 17.7303C14.4503 16.6556 14.9502 15.8872 15.7565 15.0807C16.5628 14.2742 17.3309 13.7758 18.4054 13.3568C19.2166 13.0405 20.4368 12.6662 22.6817 12.5619C24.8058 12.4659 25.6303 12.4377 29.9231 12.4327V12.4377V12.4394ZM44.2851 16.2648C42.7587 16.2648 41.5204 17.5018 41.5204 19.0287C41.5204 20.5555 42.7587 21.7942 44.2851 21.7942C45.8116 21.7942 47.0499 20.5555 47.0499 19.0287C47.0499 17.5018 45.8116 16.2631 44.2851 16.2631V16.2648ZM31.9893 19.4956C25.4564 19.4956 20.1603 24.7932 20.1603 31.3279C20.1603 37.8625 25.4564 43.1568 31.9893 43.1568C38.5221 43.1568 43.8166 37.8609 43.8166 31.3279C43.8166 24.7949 38.5221 19.4956 31.9893 19.4956ZM31.9893 23.6473C36.2292 23.6473 39.6678 27.0852 39.6678 31.3279C39.6678 35.5706 36.2292 39.0085 31.9893 39.0085C27.7494 39.0085 24.3108 35.5689 24.3108 31.3279C24.3108 27.0868 27.7477 23.6473 31.9893 23.6473Z" fill="white"/>
<defs>
<radialGradient id="paint0_radial_1_4223" cx="0" cy="0" r="1" gradientUnits="userSpaceOnUse" gradientTransform="translate(17.3748 67.2446) rotate(-90) scale(61.8323 57.5159)">
<stop stop-color="#FFDD55"/>
<stop offset="0.1" stop-color="#FFDD55"/>
<stop offset="0.5" stop-color="#FF543E"/>
<stop offset="1" stop-color="#C837AB"/>
</radialGradient>
<radialGradient id="paint1_radial_1_4223" cx="0" cy="0" r="1" gradientUnits="userSpaceOnUse" gradientTransform="translate(-9.74851 4.81159) rotate(78.683) scale(27.6295 113.938)">
<stop stop-color="#3771C8"/>
<stop offset="0.13" stop-color="#3771C8"/>
<stop offset="1" stop-color="#6600FF" stop-opacity="0"/>
</radialGradient>
</defs>
</svg>
