<svg width="18" height="19" viewBox="0 0 18 19" fill="none" xmlns="http://www.w3.org/2000/svg">
<g clip-path="url(#clip0_1_4210)">
<path d="M12.3806 18.8497C11.8449 18.8497 11.3434 18.5564 11.0926 18.0802C11.0504 18.0039 11.0163 17.9135 10.9923 17.8371L8.92784 11.6509C8.74327 11.1245 8.87769 10.5379 9.27894 10.1441C9.68018 9.74224 10.258 9.60762 10.7836 9.79246L16.9608 11.8599C17.027 11.884 17.1274 11.9101 17.2277 11.9764C17.7132 12.2356 18.0141 12.7961 17.964 13.3828C17.9138 13.9775 17.5286 14.4537 16.9608 14.6385L14.6617 15.408C14.5955 15.4322 14.5533 15.4743 14.5273 15.5427L13.7589 17.8451C13.5743 18.4057 13.0988 18.7915 12.505 18.8417H12.3706L12.3786 18.8497H12.3806ZM10.3081 10.9638C10.2419 10.9638 10.1918 10.998 10.1657 11.0221C10.1316 11.0562 10.0814 11.1306 10.1155 11.2391L12.18 17.4333C12.2562 17.592 12.3645 17.584 12.3966 17.584C12.4889 17.584 12.5471 17.5257 12.5732 17.4413L13.3416 15.1308C13.492 14.6868 13.8271 14.3512 14.2685 14.2106L16.5676 13.4411C16.6599 13.417 16.702 13.3487 16.7101 13.2643C16.7101 13.2301 16.7101 13.1216 16.6097 13.0634L10.3743 10.9779C10.3743 10.9779 10.3242 10.9618 10.2981 10.9618H10.3061L10.3081 10.9638Z" fill="#333333"/>
<path d="M10.3582 18.4719C10.292 18.3634 10.2419 18.2127 10.1997 18.0861L9.9329 17.2825C9.6741 17.4492 9.40727 17.5597 9.1304 17.5838H8.83749C7.75011 17.4753 6.61458 16.0529 5.97057 13.8247H8.77931L8.36201 12.569H5.6877C5.53723 11.7312 5.44494 10.8271 5.44494 9.84861C5.44494 8.87015 5.53723 7.96402 5.6877 7.12821H12.3083C12.4427 7.85553 12.5169 8.65115 12.533 9.48897L13.8029 9.91491V9.84861C13.8029 8.89426 13.7267 7.9821 13.5863 7.12821H16.2185C16.5435 7.9821 16.728 8.89426 16.728 9.84861C16.728 10.1922 16.704 10.5357 16.6618 10.8693L17.2477 11.0621C17.3399 11.0963 17.4984 11.1465 17.683 11.255C17.7492 11.2892 17.7994 11.3314 17.8676 11.3715C17.9518 10.8693 18.002 10.367 18.002 9.84861C18 5.01057 14.0718 0.974177 9.30695 0.865683C9.23072 0.857646 9.1304 0.849609 9.04815 0.849609H8.99799C8.89768 0.849609 8.81342 0.849609 8.78934 0.857646H8.73919C3.90415 1.00833 0 5.02664 0 9.84861C0 14.6706 3.92822 18.723 8.69304 18.8315C8.78533 18.8396 8.88564 18.8476 8.98596 18.8476H9.21066C9.65403 18.8396 10.0894 18.7974 10.5227 18.723C10.4646 18.6386 10.3983 18.5723 10.3462 18.488L10.3542 18.4719H10.3582ZM15.5985 5.87249H13.3154C12.9984 4.62481 12.529 3.54589 11.9532 2.71611C13.4739 3.36105 14.7459 4.47412 15.5985 5.87249ZM8.84552 2.10533H9.13843C10.2258 2.21382 11.3613 3.6363 12.0053 5.86445H5.97057C6.61458 3.63831 7.75212 2.21382 8.84552 2.09729V2.10533ZM6.01872 2.72616C5.44093 3.56398 4.9815 4.63485 4.66451 5.8745H2.38141C3.22604 4.48417 4.49599 3.3711 6.01672 2.72616H6.01872ZM1.2539 9.84861C1.2539 8.89426 1.43848 7.9821 1.76349 7.12821H4.39568C4.25323 7.9821 4.179 8.89426 4.179 9.84861C4.179 10.803 4.25524 11.7151 4.39568 12.569H1.76349C1.43848 11.7151 1.2539 10.803 1.2539 9.84861ZM2.37539 13.8267H4.65849C4.97548 15.0744 5.44494 16.1533 6.02073 16.9831C4.5 16.3382 3.22804 15.2251 2.37539 13.8267Z" fill="#333333"/>
</g>
<defs>
<clipPath id="clip0_1_4210">
<rect width="18" height="18" fill="white" transform="translate(0 0.849609)"/>
</clipPath>
</defs>
</svg>
