<svg width="64" height="64" viewBox="0 0 64 64" fill="none" xmlns="http://www.w3.org/2000/svg">
<path d="M49.6349 0H14.3651C6.43147 0 0 6.43147 0 14.3651V49.6349C0 57.5685 6.43147 64 14.3651 64H49.6349C57.5685 64 64 57.5685 64 49.6349V14.3651C64 6.43147 57.5685 0 49.6349 0Z" fill="#0B86CA"/>
<path d="M17.7346 26.6019H24.3851V48.0609H17.7346V26.6019ZM21.1263 15.939C23.2545 15.939 24.9836 17.6681 24.9836 19.7963C24.9836 21.9244 23.2545 23.6535 21.1263 23.6535C18.9982 23.6535 17.2912 21.9466 17.269 19.8184C17.269 17.6903 18.976 15.9611 21.1042 15.939C21.1042 15.939 21.1042 15.939 21.1263 15.939ZM28.6414 26.6019H35.0481V29.5282C36.356 27.2892 38.7723 25.9591 41.366 26.0699C48.0165 26.0699 49.3688 30.5036 49.3688 36.2895V48.0609H42.7183V37.6861C42.7183 35.2033 42.7183 31.9888 39.26 31.9888C35.8018 31.9888 35.2697 34.6934 35.2697 37.4866V48.1052H28.6192V26.6019H28.6414Z" fill="white"/>
</svg>
