<svg width="14" height="20" viewBox="0 0 14 20" fill="none" xmlns="http://www.w3.org/2000/svg">
<path d="M7 0.724609C10.3795 0.72461 13.1249 3.53652 13.123 6.98633C13.123 7.60431 13.0313 8.19976 12.8682 8.76074C12.704 9.32732 12.2893 10.1774 11.7588 11.1934C11.2258 12.214 10.5709 13.3876 9.93262 14.5029C9.29324 15.6175 8.67046 16.6728 8.20801 17.4492C7.97683 17.8373 7.78584 18.1564 7.65234 18.3779C7.58565 18.4886 7.53269 18.5749 7.49707 18.6338C7.47934 18.6631 7.46622 18.686 7.45703 18.7012C7.45243 18.7087 7.44863 18.7149 7.44629 18.7188C7.44519 18.7206 7.44393 18.7217 7.44336 18.7227V18.7236L7.44238 18.7246C7.40242 18.7899 7.34692 18.8453 7.28223 18.8877C7.03602 19.0501 6.70985 18.9739 6.55566 18.7256V18.7246L6.66211 18.6592L6.55469 18.7246V18.7227C6.55412 18.7217 6.55285 18.7205 6.55176 18.7188C6.54942 18.7149 6.54561 18.7087 6.54102 18.7012C6.53182 18.686 6.51872 18.6631 6.50098 18.6338C6.46535 18.5749 6.4124 18.4886 6.3457 18.3779C6.21221 18.1564 6.02122 17.8374 5.79004 17.4492C5.32758 16.6728 4.70481 15.6175 4.06543 14.5029C3.42711 13.3875 2.77223 12.2119 2.23926 11.1934C1.70874 10.1795 1.29413 9.32947 1.12988 8.76074L1.02148 8.33301C0.926896 7.90023 0.875 7.44966 0.875 6.98633C0.875182 3.53656 3.62043 0.724609 7 0.724609ZM7 1.79297C4.19579 1.79297 1.92498 4.11115 1.9248 6.98633C1.9248 7.50025 1.99705 7.99437 2.13184 8.46191C2.23973 8.8363 2.63592 9.68376 3.16113 10.6885C3.68406 11.6888 4.33508 12.8558 4.9707 13.9639C5.9452 15.6632 6.66508 16.854 7 17.4072C7.33493 16.854 8.0548 15.6632 9.0293 13.9639C9.66482 12.8559 10.3139 11.689 10.8389 10.6885C11.3659 9.6841 11.7603 8.83633 11.8682 8.46191C12.003 7.99221 12.0752 7.49813 12.0752 6.98633C12.075 4.11115 9.80421 1.79297 7 1.79297ZM7 3.99805C8.61357 3.99805 9.92462 5.3429 9.9248 6.98633C9.9248 8.62991 8.61368 9.97559 7 9.97559C5.38632 9.97559 4.0752 8.62991 4.0752 6.98633C4.07538 5.3429 5.38643 3.99805 7 3.99805ZM7 5.06641C5.96179 5.06641 5.12518 5.91749 5.125 6.98633C5.125 8.05533 5.96168 8.90723 7 8.90723C8.03832 8.90723 8.875 8.05533 8.875 6.98633C8.87482 5.91749 8.03821 5.06641 7 5.06641Z" fill="#333333" stroke="#333333" stroke-width="0.25"/>
</svg>
