<svg width="100" height="100" viewBox="0 0 100 100" fill="none" xmlns="http://www.w3.org/2000/svg">
<circle cx="50" cy="50" r="49" stroke="#A4EC18" stroke-width="2"/>
<g filter="url(#filter0_d_1_4083)">
<ellipse cx="50" cy="50.5" rx="42" ry="41.5" fill="#F9F9F9"/>
</g>
<path d="M55.1462 34.0901C55.4335 34.0903 55.6667 34.3233 55.6667 34.6106C55.6666 34.8978 55.4334 35.1309 55.1462 35.1311H34.5623C34.2751 35.1309 34.0419 34.8978 34.0417 34.6106C34.0417 34.3233 34.275 34.0903 34.5623 34.0901H55.1462Z" fill="#333333" stroke="#333333" stroke-width="0.25"/>
<path d="M55.1462 36.4619C55.4335 36.4621 55.6667 36.6951 55.6667 36.9824C55.6666 37.2696 55.4334 37.5028 55.1462 37.5029H34.5623C34.2751 37.5028 34.0419 37.2696 34.0417 36.9824C34.0417 36.6951 34.275 36.4621 34.5623 36.4619H55.1462Z" fill="#333333" stroke="#333333" stroke-width="0.25"/>
<path d="M52.7705 50.6919L52.876 50.7026C53.113 50.7512 53.292 50.961 53.292 51.2124C53.2919 51.4997 53.0578 51.7329 52.7705 51.7329H38.5205C38.2334 51.7327 38.0001 51.4996 38 51.2124C38 50.9251 38.2333 50.6921 38.5205 50.6919H52.7705Z" fill="#333333" stroke="#333333" stroke-width="0.25"/>
<path d="M52.7705 53.8542L52.876 53.865C53.113 53.9136 53.292 54.1234 53.292 54.3748C53.2919 54.662 53.0578 54.8953 52.7705 54.8953H38.5205C38.2334 54.8951 38.0001 54.6619 38 54.3748C38 54.0875 38.2333 53.8544 38.5205 53.8542H52.7705Z" fill="#333333" stroke="#333333" stroke-width="0.25"/>
<path d="M52.7705 57.0166L52.876 57.0273C53.113 57.076 53.292 57.2857 53.292 57.5371C53.2919 57.8244 53.0578 58.0576 52.7705 58.0576H38.5205C38.2334 58.0574 38.0001 57.8243 38 57.5371C38 57.2498 38.2333 57.0168 38.5205 57.0166H52.7705Z" fill="#333333" stroke="#333333" stroke-width="0.25"/>
<mask id="path-8-outside-1_1_4083" maskUnits="userSpaceOnUse" x="30" y="30" width="40" height="40" fill="black">
<rect fill="white" x="30" y="30" width="40" height="40"/>
<path d="M61.4792 53.9793C61.081 53.9793 60.6835 54.0109 60.2917 54.0734V43.0166C60.2917 41.7928 59.614 40.7247 58.6141 40.165C58.6141 40.1579 58.6165 40.1516 58.6165 40.1444V33.6745C58.6165 32.1993 57.4148 31 55.9383 31H35.7761C34.5704 31 33.4201 31.4498 32.535 32.2665C31.6864 33.0507 31.156 34.1061 31.0309 35.2477C31.0111 35.2951 31 35.3465 31 35.4011V64.3151C31 66.8979 33.1042 69 35.6914 69H57.0197C57.6443 69 58.2428 68.8261 58.7653 68.4956C59.6306 68.83 60.5418 69 61.4792 69C65.6259 69 69 65.6306 69 61.4897C69 57.3487 65.6259 53.9793 61.4792 53.9793ZM31.8067 35.4335C31.9777 33.3907 33.7218 31.7906 35.7761 31.7906H55.9375C56.9777 31.7906 57.824 32.6357 57.824 33.6745V39.8488C57.5667 39.7832 57.2968 39.7484 57.0189 39.7484H35.7761C33.5793 39.7484 31.7917 37.9633 31.7917 35.7695C31.7917 35.6659 31.7964 35.556 31.8067 35.4335ZM57.0197 68.2094H35.6914C33.5412 68.2094 31.7917 66.4623 31.7917 64.3151V38.3973C31.7972 38.4052 31.8027 38.4139 31.8083 38.4218C31.8162 38.4329 31.8233 38.4439 31.8313 38.455C31.8669 38.5072 31.9033 38.5586 31.9405 38.6084C31.9445 38.6139 31.9484 38.6194 31.9532 38.625C31.9935 38.6787 32.0355 38.7317 32.0782 38.7839C32.0877 38.795 32.0972 38.8068 32.106 38.8179C32.1495 38.8701 32.1938 38.9214 32.2398 38.972C32.2421 38.9752 32.2453 38.9784 32.2485 38.9807C32.2928 39.029 32.3379 39.0756 32.3838 39.1222C32.3933 39.1317 32.4028 39.1412 32.4123 39.1507C32.4598 39.1981 32.5089 39.2448 32.5588 39.2898C32.5667 39.2978 32.5754 39.3049 32.5841 39.312C32.63 39.3539 32.6775 39.3942 32.725 39.4337C32.7322 39.4401 32.7401 39.4464 32.7472 39.4519C32.7995 39.4946 32.8525 39.5365 32.9063 39.5768C32.9174 39.5855 32.9285 39.5934 32.9396 39.6013C33.0504 39.6835 33.1644 39.7602 33.2824 39.833C33.2943 39.8401 33.3061 39.8472 33.318 39.8551C33.3766 39.8899 33.4352 39.9247 33.4953 39.9571C33.5033 39.961 33.5104 39.965 33.5183 39.9689C33.5737 39.999 33.6299 40.0274 33.6869 40.0551C33.698 40.0606 33.7083 40.0654 33.7194 40.0709C33.7803 40.1002 33.8429 40.1278 33.9054 40.1547C33.9181 40.1603 33.93 40.165 33.9426 40.1705C34.0028 40.1958 34.063 40.2195 34.1239 40.2417C34.1295 40.2441 34.135 40.2456 34.1405 40.248C34.2055 40.2717 34.2712 40.2939 34.3369 40.3144C34.3511 40.3192 34.3654 40.3231 34.3796 40.3279C34.4461 40.3484 34.5134 40.3674 34.5807 40.3848C34.5862 40.3864 34.5918 40.3871 34.5973 40.3887C34.6615 40.4053 34.7256 40.4196 34.7905 40.433C34.8047 40.4362 34.8182 40.4393 34.8325 40.4417C34.9005 40.4551 34.9686 40.4678 35.0375 40.4781C35.0502 40.4796 35.0628 40.482 35.0763 40.4836C35.1396 40.4931 35.203 40.501 35.2663 40.5081C35.2774 40.5089 35.2877 40.5105 35.2987 40.5121C35.3692 40.5192 35.4397 40.5239 35.5101 40.5279C35.526 40.5287 35.5418 40.5294 35.5576 40.5302C35.6305 40.5334 35.7033 40.5358 35.7769 40.5358H57.0197C58.3869 40.5358 59.5 41.6473 59.5 43.0126V54.2386C59.4105 54.2631 59.3211 54.29 59.2324 54.3177C59.2071 54.3256 59.1818 54.3335 59.1572 54.3422C59.0891 54.3643 59.0202 54.388 58.953 54.4117C58.93 54.4204 58.9062 54.4283 58.8833 54.437C58.7954 54.4694 58.7083 54.5027 58.622 54.5382C58.6102 54.543 58.5983 54.5485 58.5864 54.5532C58.5112 54.5849 58.4368 54.6173 58.3632 54.6513C58.3386 54.6623 58.3141 54.6742 58.2887 54.6861C58.2215 54.7177 58.1542 54.7501 58.0877 54.7841C58.0695 54.7936 58.0512 54.8023 58.0322 54.8118C57.9491 54.8545 57.8676 54.8987 57.7868 54.9446C57.7686 54.9549 57.7512 54.9659 57.733 54.9762C57.6689 55.0134 57.6047 55.0513 57.5414 55.09C57.5177 55.1043 57.4947 55.1185 57.471 55.1335C57.4029 55.177 57.3348 55.2205 57.2683 55.2655C57.2572 55.2735 57.2461 55.2806 57.235 55.2877C57.1583 55.3399 57.0822 55.3944 57.0078 55.4497C56.9872 55.4648 56.9675 55.4806 56.9469 55.4956C56.8899 55.5383 56.8337 55.5826 56.7782 55.6268C56.7569 55.6434 56.7363 55.66 56.7149 55.6774C56.6429 55.7359 56.5708 55.796 56.5012 55.8577C56.4972 55.8608 56.494 55.864 56.4901 55.8672C56.437 55.9146 56.3848 55.962 56.3325 56.0103V49.6541C56.3325 48.5497 55.4332 47.6516 54.3272 47.6516H36.9636C35.8577 47.6516 34.9583 48.5497 34.9583 49.6541V59.0879C34.9583 60.0888 35.697 60.9204 36.6588 61.0675C36.7586 61.0825 36.8599 61.0904 36.9636 61.0904H53.9686C53.967 61.1299 53.9655 61.1703 53.9639 61.2098C53.9631 61.2343 53.9615 61.2588 53.9607 61.2833C53.9591 61.3505 53.9575 61.4185 53.9575 61.4857C53.9575 61.5766 53.9591 61.6667 53.9623 61.7569C53.9639 61.7869 53.9655 61.8162 53.967 61.8454C53.9702 61.9063 53.9726 61.9664 53.9773 62.0264C53.9797 62.0612 53.9829 62.0968 53.986 62.1316C53.9908 62.1861 53.9955 62.2407 54.0011 62.2944C54.005 62.3316 54.0098 62.368 54.0145 62.4043C54.0209 62.4565 54.0272 62.5087 54.0351 62.5601C54.0407 62.598 54.0462 62.6344 54.0525 62.6723C54.0605 62.7229 54.0692 62.7735 54.0779 62.8241C54.0842 62.8613 54.0913 62.8984 54.0992 62.9356C54.1087 62.9862 54.1198 63.0368 54.1301 63.0866C54.138 63.123 54.146 63.1593 54.1547 63.1949C54.1665 63.2463 54.1792 63.2961 54.1919 63.3467C54.2006 63.3815 54.2093 63.4163 54.2188 63.451C54.233 63.5032 54.2481 63.5554 54.2631 63.6076C54.2726 63.6392 54.2813 63.6716 54.2916 63.704C54.309 63.7609 54.328 63.8171 54.347 63.8732C54.3557 63.9001 54.3645 63.927 54.3732 63.9538C54.3985 64.0274 54.4254 64.1001 54.4531 64.1728C54.4563 64.1815 54.4595 64.191 54.4626 64.1997C54.4943 64.2819 54.5283 64.3641 54.5632 64.4448C54.5703 64.4614 54.5782 64.478 54.5853 64.4938C54.613 64.557 54.6407 64.6203 54.6708 64.6827C54.6827 64.7088 54.6962 64.7341 54.708 64.7594C54.7334 64.8124 54.7595 64.8654 54.7864 64.9167C54.8015 64.9452 54.8165 64.9737 54.8315 65.0021C54.8577 65.0503 54.883 65.0994 54.9099 65.1468C54.9265 65.176 54.9432 65.2053 54.9606 65.2345C54.9875 65.2812 55.0144 65.327 55.0421 65.3729C55.0603 65.4021 55.0777 65.4314 55.096 65.4606C55.1237 65.5057 55.153 65.5508 55.1815 65.595C55.2005 65.6235 55.2195 65.6528 55.2385 65.6804C55.2685 65.7247 55.2994 65.769 55.3303 65.8132C55.3493 65.8409 55.3683 65.8678 55.3881 65.8947C55.4205 65.9397 55.4538 65.984 55.4878 66.0283C55.5068 66.0536 55.5258 66.0789 55.5456 66.1034C55.582 66.15 55.62 66.1967 55.658 66.2425C55.6755 66.2639 55.6921 66.2852 55.7103 66.3058C55.7562 66.3603 55.8029 66.4141 55.8504 66.4678C55.8607 66.4797 55.871 66.4915 55.8813 66.5034C55.9407 66.569 56.0008 66.6338 56.0626 66.6979C56.0665 66.7018 56.0705 66.7058 56.0752 66.7105C56.1322 66.769 56.1893 66.826 56.2478 66.8829C56.2668 66.9011 56.2858 66.9184 56.3048 66.9366C56.3492 66.9785 56.3935 67.0204 56.4394 67.0615C56.4632 67.0829 56.4877 67.1042 56.5115 67.1248C56.5534 67.1612 56.5954 67.1975 56.6381 67.2339C56.665 67.256 56.692 67.2782 56.7189 67.3003C56.76 67.3335 56.8012 67.3675 56.8432 67.3999C56.8717 67.422 56.901 67.4442 56.9295 67.4655C56.9706 67.4971 57.0126 67.528 57.0545 67.5588C57.0846 67.5801 57.1147 67.6023 57.1448 67.6236C57.1868 67.6537 57.2295 67.6829 57.273 67.7114C57.3039 67.7319 57.3348 67.7525 57.3665 67.773C57.41 67.8015 57.4543 67.8292 57.4995 67.8568C57.5311 67.8766 57.562 67.8956 57.5937 67.9146C57.6396 67.9422 57.6871 67.9691 57.7338 67.996C57.7647 68.0142 57.7947 68.0316 57.8264 68.049C57.8343 68.0529 57.8415 68.0576 57.8486 68.0616C57.585 68.1549 57.3063 68.2031 57.0205 68.2031L57.0197 68.2094ZM55.5417 49.6573V56.8799C55.5266 56.8988 55.5132 56.9178 55.4981 56.9376C55.4768 56.9653 55.4562 56.9929 55.4356 57.0206C55.4047 57.0617 55.3746 57.1036 55.3453 57.1455C55.3255 57.1732 55.3065 57.2001 55.2875 57.2277C55.2567 57.272 55.2266 57.3171 55.1973 57.3621C55.1807 57.3874 55.1632 57.4127 55.1466 57.4388C55.1126 57.4918 55.0793 57.5455 55.0461 57.6001C55.035 57.6183 55.0239 57.6357 55.0128 57.6538C54.9693 57.7266 54.9273 57.7993 54.887 57.8728C54.879 57.8878 54.8711 57.9037 54.8624 57.9187C54.8308 57.9772 54.7991 58.0357 54.769 58.095C54.7555 58.1211 54.7429 58.1479 54.7302 58.174C54.7057 58.223 54.6819 58.2721 54.659 58.3219C54.6455 58.3519 54.632 58.3812 54.6186 58.4112C54.5972 58.4586 54.5766 58.5053 54.556 58.5535C54.5426 58.5843 54.5299 58.6152 54.5173 58.6468C54.4982 58.6942 54.4792 58.7417 54.4602 58.7891C54.4484 58.8199 54.4365 58.8515 54.4246 58.8832C54.4064 58.9322 54.389 58.9812 54.3716 59.031C54.3613 59.061 54.3502 59.0911 54.3407 59.1211C54.3225 59.1749 54.3059 59.2286 54.2892 59.2824C54.2813 59.3085 54.2726 59.3354 54.2647 59.3615C54.2441 59.4318 54.2243 59.5014 54.2061 59.5725C54.203 59.5836 54.1998 59.5939 54.1974 59.6042C54.176 59.6864 54.1562 59.7686 54.138 59.8516C54.1333 59.8722 54.1293 59.8935 54.1254 59.9141C54.1119 59.9757 54.0993 60.0374 54.0874 60.099C54.0818 60.1291 54.0771 60.1583 54.0715 60.1884C54.0652 60.2263 54.0573 60.2651 54.0517 60.303H36.9636C36.2939 60.303 35.75 59.7591 35.75 59.0903V49.6565C35.75 48.9885 36.2947 48.4446 36.9636 48.4446H54.3272C54.997 48.4446 55.5409 48.9885 55.5409 49.6565L55.5417 49.6573ZM61.4792 68.2094C60.5751 68.2094 59.6971 68.0331 58.8714 67.6861C56.7592 66.7983 55.2772 64.9278 54.8656 62.7364C54.8505 62.6557 54.8363 62.5735 54.8244 62.4913C54.7999 62.3269 54.7809 62.1616 54.769 61.9948C54.7563 61.8272 54.75 61.6596 54.75 61.4897C54.75 61.428 54.7508 61.3655 54.7524 61.3031C54.7571 61.1157 54.7706 60.9268 54.792 60.7386C54.9337 59.465 55.4364 58.2642 56.2455 57.2657C57.1947 56.0941 58.5223 55.2671 59.9837 54.9359C60.4722 54.8252 60.9757 54.7691 61.4792 54.7691C65.1897 54.7691 68.2083 57.7835 68.2083 61.4889C68.2083 65.1942 65.1897 68.2086 61.4792 68.2086V68.2094Z"/>
</mask>
<path d="M61.4792 53.9793C61.081 53.9793 60.6835 54.0109 60.2917 54.0734V43.0166C60.2917 41.7928 59.614 40.7247 58.6141 40.165C58.6141 40.1579 58.6165 40.1516 58.6165 40.1444V33.6745C58.6165 32.1993 57.4148 31 55.9383 31H35.7761C34.5704 31 33.4201 31.4498 32.535 32.2665C31.6864 33.0507 31.156 34.1061 31.0309 35.2477C31.0111 35.2951 31 35.3465 31 35.4011V64.3151C31 66.8979 33.1042 69 35.6914 69H57.0197C57.6443 69 58.2428 68.8261 58.7653 68.4956C59.6306 68.83 60.5418 69 61.4792 69C65.6259 69 69 65.6306 69 61.4897C69 57.3487 65.6259 53.9793 61.4792 53.9793ZM31.8067 35.4335C31.9777 33.3907 33.7218 31.7906 35.7761 31.7906H55.9375C56.9777 31.7906 57.824 32.6357 57.824 33.6745V39.8488C57.5667 39.7832 57.2968 39.7484 57.0189 39.7484H35.7761C33.5793 39.7484 31.7917 37.9633 31.7917 35.7695C31.7917 35.6659 31.7964 35.556 31.8067 35.4335ZM57.0197 68.2094H35.6914C33.5412 68.2094 31.7917 66.4623 31.7917 64.3151V38.3973C31.7972 38.4052 31.8027 38.4139 31.8083 38.4218C31.8162 38.4329 31.8233 38.4439 31.8313 38.455C31.8669 38.5072 31.9033 38.5586 31.9405 38.6084C31.9445 38.6139 31.9484 38.6194 31.9532 38.625C31.9935 38.6787 32.0355 38.7317 32.0782 38.7839C32.0877 38.795 32.0972 38.8068 32.106 38.8179C32.1495 38.8701 32.1938 38.9214 32.2398 38.972C32.2421 38.9752 32.2453 38.9784 32.2485 38.9807C32.2928 39.029 32.3379 39.0756 32.3838 39.1222C32.3933 39.1317 32.4028 39.1412 32.4123 39.1507C32.4598 39.1981 32.5089 39.2448 32.5588 39.2898C32.5667 39.2978 32.5754 39.3049 32.5841 39.312C32.63 39.3539 32.6775 39.3942 32.725 39.4337C32.7322 39.4401 32.7401 39.4464 32.7472 39.4519C32.7995 39.4946 32.8525 39.5365 32.9063 39.5768C32.9174 39.5855 32.9285 39.5934 32.9396 39.6013C33.0504 39.6835 33.1644 39.7602 33.2824 39.833C33.2943 39.8401 33.3061 39.8472 33.318 39.8551C33.3766 39.8899 33.4352 39.9247 33.4953 39.9571C33.5033 39.961 33.5104 39.965 33.5183 39.9689C33.5737 39.999 33.6299 40.0274 33.6869 40.0551C33.698 40.0606 33.7083 40.0654 33.7194 40.0709C33.7803 40.1002 33.8429 40.1278 33.9054 40.1547C33.9181 40.1603 33.93 40.165 33.9426 40.1705C34.0028 40.1958 34.063 40.2195 34.1239 40.2417C34.1295 40.2441 34.135 40.2456 34.1405 40.248C34.2055 40.2717 34.2712 40.2939 34.3369 40.3144C34.3511 40.3192 34.3654 40.3231 34.3796 40.3279C34.4461 40.3484 34.5134 40.3674 34.5807 40.3848C34.5862 40.3864 34.5918 40.3871 34.5973 40.3887C34.6615 40.4053 34.7256 40.4196 34.7905 40.433C34.8047 40.4362 34.8182 40.4393 34.8325 40.4417C34.9005 40.4551 34.9686 40.4678 35.0375 40.4781C35.0502 40.4796 35.0628 40.482 35.0763 40.4836C35.1396 40.4931 35.203 40.501 35.2663 40.5081C35.2774 40.5089 35.2877 40.5105 35.2987 40.5121C35.3692 40.5192 35.4397 40.5239 35.5101 40.5279C35.526 40.5287 35.5418 40.5294 35.5576 40.5302C35.6305 40.5334 35.7033 40.5358 35.7769 40.5358H57.0197C58.3869 40.5358 59.5 41.6473 59.5 43.0126V54.2386C59.4105 54.2631 59.3211 54.29 59.2324 54.3177C59.2071 54.3256 59.1818 54.3335 59.1572 54.3422C59.0891 54.3643 59.0202 54.388 58.953 54.4117C58.93 54.4204 58.9062 54.4283 58.8833 54.437C58.7954 54.4694 58.7083 54.5027 58.622 54.5382C58.6102 54.543 58.5983 54.5485 58.5864 54.5532C58.5112 54.5849 58.4368 54.6173 58.3632 54.6513C58.3386 54.6623 58.3141 54.6742 58.2887 54.6861C58.2215 54.7177 58.1542 54.7501 58.0877 54.7841C58.0695 54.7936 58.0512 54.8023 58.0322 54.8118C57.9491 54.8545 57.8676 54.8987 57.7868 54.9446C57.7686 54.9549 57.7512 54.9659 57.733 54.9762C57.6689 55.0134 57.6047 55.0513 57.5414 55.09C57.5177 55.1043 57.4947 55.1185 57.471 55.1335C57.4029 55.177 57.3348 55.2205 57.2683 55.2655C57.2572 55.2735 57.2461 55.2806 57.235 55.2877C57.1583 55.3399 57.0822 55.3944 57.0078 55.4497C56.9872 55.4648 56.9675 55.4806 56.9469 55.4956C56.8899 55.5383 56.8337 55.5826 56.7782 55.6268C56.7569 55.6434 56.7363 55.66 56.7149 55.6774C56.6429 55.7359 56.5708 55.796 56.5012 55.8577C56.4972 55.8608 56.494 55.864 56.4901 55.8672C56.437 55.9146 56.3848 55.962 56.3325 56.0103V49.6541C56.3325 48.5497 55.4332 47.6516 54.3272 47.6516H36.9636C35.8577 47.6516 34.9583 48.5497 34.9583 49.6541V59.0879C34.9583 60.0888 35.697 60.9204 36.6588 61.0675C36.7586 61.0825 36.8599 61.0904 36.9636 61.0904H53.9686C53.967 61.1299 53.9655 61.1703 53.9639 61.2098C53.9631 61.2343 53.9615 61.2588 53.9607 61.2833C53.9591 61.3505 53.9575 61.4185 53.9575 61.4857C53.9575 61.5766 53.9591 61.6667 53.9623 61.7569C53.9639 61.7869 53.9655 61.8162 53.967 61.8454C53.9702 61.9063 53.9726 61.9664 53.9773 62.0264C53.9797 62.0612 53.9829 62.0968 53.986 62.1316C53.9908 62.1861 53.9955 62.2407 54.0011 62.2944C54.005 62.3316 54.0098 62.368 54.0145 62.4043C54.0209 62.4565 54.0272 62.5087 54.0351 62.5601C54.0407 62.598 54.0462 62.6344 54.0525 62.6723C54.0605 62.7229 54.0692 62.7735 54.0779 62.8241C54.0842 62.8613 54.0913 62.8984 54.0992 62.9356C54.1087 62.9862 54.1198 63.0368 54.1301 63.0866C54.138 63.123 54.146 63.1593 54.1547 63.1949C54.1665 63.2463 54.1792 63.2961 54.1919 63.3467C54.2006 63.3815 54.2093 63.4163 54.2188 63.451C54.233 63.5032 54.2481 63.5554 54.2631 63.6076C54.2726 63.6392 54.2813 63.6716 54.2916 63.704C54.309 63.7609 54.328 63.8171 54.347 63.8732C54.3557 63.9001 54.3645 63.927 54.3732 63.9538C54.3985 64.0274 54.4254 64.1001 54.4531 64.1728C54.4563 64.1815 54.4595 64.191 54.4626 64.1997C54.4943 64.2819 54.5283 64.3641 54.5632 64.4448C54.5703 64.4614 54.5782 64.478 54.5853 64.4938C54.613 64.557 54.6407 64.6203 54.6708 64.6827C54.6827 64.7088 54.6962 64.7341 54.708 64.7594C54.7334 64.8124 54.7595 64.8654 54.7864 64.9167C54.8015 64.9452 54.8165 64.9737 54.8315 65.0021C54.8577 65.0503 54.883 65.0994 54.9099 65.1468C54.9265 65.176 54.9432 65.2053 54.9606 65.2345C54.9875 65.2812 55.0144 65.327 55.0421 65.3729C55.0603 65.4021 55.0777 65.4314 55.096 65.4606C55.1237 65.5057 55.153 65.5508 55.1815 65.595C55.2005 65.6235 55.2195 65.6528 55.2385 65.6804C55.2685 65.7247 55.2994 65.769 55.3303 65.8132C55.3493 65.8409 55.3683 65.8678 55.3881 65.8947C55.4205 65.9397 55.4538 65.984 55.4878 66.0283C55.5068 66.0536 55.5258 66.0789 55.5456 66.1034C55.582 66.15 55.62 66.1967 55.658 66.2425C55.6755 66.2639 55.6921 66.2852 55.7103 66.3058C55.7562 66.3603 55.8029 66.4141 55.8504 66.4678C55.8607 66.4797 55.871 66.4915 55.8813 66.5034C55.9407 66.569 56.0008 66.6338 56.0626 66.6979C56.0665 66.7018 56.0705 66.7058 56.0752 66.7105C56.1322 66.769 56.1893 66.826 56.2478 66.8829C56.2668 66.9011 56.2858 66.9184 56.3048 66.9366C56.3492 66.9785 56.3935 67.0204 56.4394 67.0615C56.4632 67.0829 56.4877 67.1042 56.5115 67.1248C56.5534 67.1612 56.5954 67.1975 56.6381 67.2339C56.665 67.256 56.692 67.2782 56.7189 67.3003C56.76 67.3335 56.8012 67.3675 56.8432 67.3999C56.8717 67.422 56.901 67.4442 56.9295 67.4655C56.9706 67.4971 57.0126 67.528 57.0545 67.5588C57.0846 67.5801 57.1147 67.6023 57.1448 67.6236C57.1868 67.6537 57.2295 67.6829 57.273 67.7114C57.3039 67.7319 57.3348 67.7525 57.3665 67.773C57.41 67.8015 57.4543 67.8292 57.4995 67.8568C57.5311 67.8766 57.562 67.8956 57.5937 67.9146C57.6396 67.9422 57.6871 67.9691 57.7338 67.996C57.7647 68.0142 57.7947 68.0316 57.8264 68.049C57.8343 68.0529 57.8415 68.0576 57.8486 68.0616C57.585 68.1549 57.3063 68.2031 57.0205 68.2031L57.0197 68.2094ZM55.5417 49.6573V56.8799C55.5266 56.8988 55.5132 56.9178 55.4981 56.9376C55.4768 56.9653 55.4562 56.9929 55.4356 57.0206C55.4047 57.0617 55.3746 57.1036 55.3453 57.1455C55.3255 57.1732 55.3065 57.2001 55.2875 57.2277C55.2567 57.272 55.2266 57.3171 55.1973 57.3621C55.1807 57.3874 55.1632 57.4127 55.1466 57.4388C55.1126 57.4918 55.0793 57.5455 55.0461 57.6001C55.035 57.6183 55.0239 57.6357 55.0128 57.6538C54.9693 57.7266 54.9273 57.7993 54.887 57.8728C54.879 57.8878 54.8711 57.9037 54.8624 57.9187C54.8308 57.9772 54.7991 58.0357 54.769 58.095C54.7555 58.1211 54.7429 58.1479 54.7302 58.174C54.7057 58.223 54.6819 58.2721 54.659 58.3219C54.6455 58.3519 54.632 58.3812 54.6186 58.4112C54.5972 58.4586 54.5766 58.5053 54.556 58.5535C54.5426 58.5843 54.5299 58.6152 54.5173 58.6468C54.4982 58.6942 54.4792 58.7417 54.4602 58.7891C54.4484 58.8199 54.4365 58.8515 54.4246 58.8832C54.4064 58.9322 54.389 58.9812 54.3716 59.031C54.3613 59.061 54.3502 59.0911 54.3407 59.1211C54.3225 59.1749 54.3059 59.2286 54.2892 59.2824C54.2813 59.3085 54.2726 59.3354 54.2647 59.3615C54.2441 59.4318 54.2243 59.5014 54.2061 59.5725C54.203 59.5836 54.1998 59.5939 54.1974 59.6042C54.176 59.6864 54.1562 59.7686 54.138 59.8516C54.1333 59.8722 54.1293 59.8935 54.1254 59.9141C54.1119 59.9757 54.0993 60.0374 54.0874 60.099C54.0818 60.1291 54.0771 60.1583 54.0715 60.1884C54.0652 60.2263 54.0573 60.2651 54.0517 60.303H36.9636C36.2939 60.303 35.75 59.7591 35.75 59.0903V49.6565C35.75 48.9885 36.2947 48.4446 36.9636 48.4446H54.3272C54.997 48.4446 55.5409 48.9885 55.5409 49.6565L55.5417 49.6573ZM61.4792 68.2094C60.5751 68.2094 59.6971 68.0331 58.8714 67.6861C56.7592 66.7983 55.2772 64.9278 54.8656 62.7364C54.8505 62.6557 54.8363 62.5735 54.8244 62.4913C54.7999 62.3269 54.7809 62.1616 54.769 61.9948C54.7563 61.8272 54.75 61.6596 54.75 61.4897C54.75 61.428 54.7508 61.3655 54.7524 61.3031C54.7571 61.1157 54.7706 60.9268 54.792 60.7386C54.9337 59.465 55.4364 58.2642 56.2455 57.2657C57.1947 56.0941 58.5223 55.2671 59.9837 54.9359C60.4722 54.8252 60.9757 54.7691 61.4792 54.7691C65.1897 54.7691 68.2083 57.7835 68.2083 61.4889C68.2083 65.1942 65.1897 68.2086 61.4792 68.2086V68.2094Z" fill="#333333"/>
<path d="M61.4792 53.9793C61.081 53.9793 60.6835 54.0109 60.2917 54.0734V43.0166C60.2917 41.7928 59.614 40.7247 58.6141 40.165C58.6141 40.1579 58.6165 40.1516 58.6165 40.1444V33.6745C58.6165 32.1993 57.4148 31 55.9383 31H35.7761C34.5704 31 33.4201 31.4498 32.535 32.2665C31.6864 33.0507 31.156 34.1061 31.0309 35.2477C31.0111 35.2951 31 35.3465 31 35.4011V64.3151C31 66.8979 33.1042 69 35.6914 69H57.0197C57.6443 69 58.2428 68.8261 58.7653 68.4956C59.6306 68.83 60.5418 69 61.4792 69C65.6259 69 69 65.6306 69 61.4897C69 57.3487 65.6259 53.9793 61.4792 53.9793ZM31.8067 35.4335C31.9777 33.3907 33.7218 31.7906 35.7761 31.7906H55.9375C56.9777 31.7906 57.824 32.6357 57.824 33.6745V39.8488C57.5667 39.7832 57.2968 39.7484 57.0189 39.7484H35.7761C33.5793 39.7484 31.7917 37.9633 31.7917 35.7695C31.7917 35.6659 31.7964 35.556 31.8067 35.4335ZM57.0197 68.2094H35.6914C33.5412 68.2094 31.7917 66.4623 31.7917 64.3151V38.3973C31.7972 38.4052 31.8027 38.4139 31.8083 38.4218C31.8162 38.4329 31.8233 38.4439 31.8313 38.455C31.8669 38.5072 31.9033 38.5586 31.9405 38.6084C31.9445 38.6139 31.9484 38.6194 31.9532 38.625C31.9935 38.6787 32.0355 38.7317 32.0782 38.7839C32.0877 38.795 32.0972 38.8068 32.106 38.8179C32.1495 38.8701 32.1938 38.9214 32.2398 38.972C32.2421 38.9752 32.2453 38.9784 32.2485 38.9807C32.2928 39.029 32.3379 39.0756 32.3838 39.1222C32.3933 39.1317 32.4028 39.1412 32.4123 39.1507C32.4598 39.1981 32.5089 39.2448 32.5588 39.2898C32.5667 39.2978 32.5754 39.3049 32.5841 39.312C32.63 39.3539 32.6775 39.3942 32.725 39.4337C32.7322 39.4401 32.7401 39.4464 32.7472 39.4519C32.7995 39.4946 32.8525 39.5365 32.9063 39.5768C32.9174 39.5855 32.9285 39.5934 32.9396 39.6013C33.0504 39.6835 33.1644 39.7602 33.2824 39.833C33.2943 39.8401 33.3061 39.8472 33.318 39.8551C33.3766 39.8899 33.4352 39.9247 33.4953 39.9571C33.5033 39.961 33.5104 39.965 33.5183 39.9689C33.5737 39.999 33.6299 40.0274 33.6869 40.0551C33.698 40.0606 33.7083 40.0654 33.7194 40.0709C33.7803 40.1002 33.8429 40.1278 33.9054 40.1547C33.9181 40.1603 33.93 40.165 33.9426 40.1705C34.0028 40.1958 34.063 40.2195 34.1239 40.2417C34.1295 40.2441 34.135 40.2456 34.1405 40.248C34.2055 40.2717 34.2712 40.2939 34.3369 40.3144C34.3511 40.3192 34.3654 40.3231 34.3796 40.3279C34.4461 40.3484 34.5134 40.3674 34.5807 40.3848C34.5862 40.3864 34.5918 40.3871 34.5973 40.3887C34.6615 40.4053 34.7256 40.4196 34.7905 40.433C34.8047 40.4362 34.8182 40.4393 34.8325 40.4417C34.9005 40.4551 34.9686 40.4678 35.0375 40.4781C35.0502 40.4796 35.0628 40.482 35.0763 40.4836C35.1396 40.4931 35.203 40.501 35.2663 40.5081C35.2774 40.5089 35.2877 40.5105 35.2987 40.5121C35.3692 40.5192 35.4397 40.5239 35.5101 40.5279C35.526 40.5287 35.5418 40.5294 35.5576 40.5302C35.6305 40.5334 35.7033 40.5358 35.7769 40.5358H57.0197C58.3869 40.5358 59.5 41.6473 59.5 43.0126V54.2386C59.4105 54.2631 59.3211 54.29 59.2324 54.3177C59.2071 54.3256 59.1818 54.3335 59.1572 54.3422C59.0891 54.3643 59.0202 54.388 58.953 54.4117C58.93 54.4204 58.9062 54.4283 58.8833 54.437C58.7954 54.4694 58.7083 54.5027 58.622 54.5382C58.6102 54.543 58.5983 54.5485 58.5864 54.5532C58.5112 54.5849 58.4368 54.6173 58.3632 54.6513C58.3386 54.6623 58.3141 54.6742 58.2887 54.6861C58.2215 54.7177 58.1542 54.7501 58.0877 54.7841C58.0695 54.7936 58.0512 54.8023 58.0322 54.8118C57.9491 54.8545 57.8676 54.8987 57.7868 54.9446C57.7686 54.9549 57.7512 54.9659 57.733 54.9762C57.6689 55.0134 57.6047 55.0513 57.5414 55.09C57.5177 55.1043 57.4947 55.1185 57.471 55.1335C57.4029 55.177 57.3348 55.2205 57.2683 55.2655C57.2572 55.2735 57.2461 55.2806 57.235 55.2877C57.1583 55.3399 57.0822 55.3944 57.0078 55.4497C56.9872 55.4648 56.9675 55.4806 56.9469 55.4956C56.8899 55.5383 56.8337 55.5826 56.7782 55.6268C56.7569 55.6434 56.7363 55.66 56.7149 55.6774C56.6429 55.7359 56.5708 55.796 56.5012 55.8577C56.4972 55.8608 56.494 55.864 56.4901 55.8672C56.437 55.9146 56.3848 55.962 56.3325 56.0103V49.6541C56.3325 48.5497 55.4332 47.6516 54.3272 47.6516H36.9636C35.8577 47.6516 34.9583 48.5497 34.9583 49.6541V59.0879C34.9583 60.0888 35.697 60.9204 36.6588 61.0675C36.7586 61.0825 36.8599 61.0904 36.9636 61.0904H53.9686C53.967 61.1299 53.9655 61.1703 53.9639 61.2098C53.9631 61.2343 53.9615 61.2588 53.9607 61.2833C53.9591 61.3505 53.9575 61.4185 53.9575 61.4857C53.9575 61.5766 53.9591 61.6667 53.9623 61.7569C53.9639 61.7869 53.9655 61.8162 53.967 61.8454C53.9702 61.9063 53.9726 61.9664 53.9773 62.0264C53.9797 62.0612 53.9829 62.0968 53.986 62.1316C53.9908 62.1861 53.9955 62.2407 54.0011 62.2944C54.005 62.3316 54.0098 62.368 54.0145 62.4043C54.0209 62.4565 54.0272 62.5087 54.0351 62.5601C54.0407 62.598 54.0462 62.6344 54.0525 62.6723C54.0605 62.7229 54.0692 62.7735 54.0779 62.8241C54.0842 62.8613 54.0913 62.8984 54.0992 62.9356C54.1087 62.9862 54.1198 63.0368 54.1301 63.0866C54.138 63.123 54.146 63.1593 54.1547 63.1949C54.1665 63.2463 54.1792 63.2961 54.1919 63.3467C54.2006 63.3815 54.2093 63.4163 54.2188 63.451C54.233 63.5032 54.2481 63.5554 54.2631 63.6076C54.2726 63.6392 54.2813 63.6716 54.2916 63.704C54.309 63.7609 54.328 63.8171 54.347 63.8732C54.3557 63.9001 54.3645 63.927 54.3732 63.9538C54.3985 64.0274 54.4254 64.1001 54.4531 64.1728C54.4563 64.1815 54.4595 64.191 54.4626 64.1997C54.4943 64.2819 54.5283 64.3641 54.5632 64.4448C54.5703 64.4614 54.5782 64.478 54.5853 64.4938C54.613 64.557 54.6407 64.6203 54.6708 64.6827C54.6827 64.7088 54.6962 64.7341 54.708 64.7594C54.7334 64.8124 54.7595 64.8654 54.7864 64.9167C54.8015 64.9452 54.8165 64.9737 54.8315 65.0021C54.8577 65.0503 54.883 65.0994 54.9099 65.1468C54.9265 65.176 54.9432 65.2053 54.9606 65.2345C54.9875 65.2812 55.0144 65.327 55.0421 65.3729C55.0603 65.4021 55.0777 65.4314 55.096 65.4606C55.1237 65.5057 55.153 65.5508 55.1815 65.595C55.2005 65.6235 55.2195 65.6528 55.2385 65.6804C55.2685 65.7247 55.2994 65.769 55.3303 65.8132C55.3493 65.8409 55.3683 65.8678 55.3881 65.8947C55.4205 65.9397 55.4538 65.984 55.4878 66.0283C55.5068 66.0536 55.5258 66.0789 55.5456 66.1034C55.582 66.15 55.62 66.1967 55.658 66.2425C55.6755 66.2639 55.6921 66.2852 55.7103 66.3058C55.7562 66.3603 55.8029 66.4141 55.8504 66.4678C55.8607 66.4797 55.871 66.4915 55.8813 66.5034C55.9407 66.569 56.0008 66.6338 56.0626 66.6979C56.0665 66.7018 56.0705 66.7058 56.0752 66.7105C56.1322 66.769 56.1893 66.826 56.2478 66.8829C56.2668 66.9011 56.2858 66.9184 56.3048 66.9366C56.3492 66.9785 56.3935 67.0204 56.4394 67.0615C56.4632 67.0829 56.4877 67.1042 56.5115 67.1248C56.5534 67.1612 56.5954 67.1975 56.6381 67.2339C56.665 67.256 56.692 67.2782 56.7189 67.3003C56.76 67.3335 56.8012 67.3675 56.8432 67.3999C56.8717 67.422 56.901 67.4442 56.9295 67.4655C56.9706 67.4971 57.0126 67.528 57.0545 67.5588C57.0846 67.5801 57.1147 67.6023 57.1448 67.6236C57.1868 67.6537 57.2295 67.6829 57.273 67.7114C57.3039 67.7319 57.3348 67.7525 57.3665 67.773C57.41 67.8015 57.4543 67.8292 57.4995 67.8568C57.5311 67.8766 57.562 67.8956 57.5937 67.9146C57.6396 67.9422 57.6871 67.9691 57.7338 67.996C57.7647 68.0142 57.7947 68.0316 57.8264 68.049C57.8343 68.0529 57.8415 68.0576 57.8486 68.0616C57.585 68.1549 57.3063 68.2031 57.0205 68.2031L57.0197 68.2094ZM55.5417 49.6573V56.8799C55.5266 56.8988 55.5132 56.9178 55.4981 56.9376C55.4768 56.9653 55.4562 56.9929 55.4356 57.0206C55.4047 57.0617 55.3746 57.1036 55.3453 57.1455C55.3255 57.1732 55.3065 57.2001 55.2875 57.2277C55.2567 57.272 55.2266 57.3171 55.1973 57.3621C55.1807 57.3874 55.1632 57.4127 55.1466 57.4388C55.1126 57.4918 55.0793 57.5455 55.0461 57.6001C55.035 57.6183 55.0239 57.6357 55.0128 57.6538C54.9693 57.7266 54.9273 57.7993 54.887 57.8728C54.879 57.8878 54.8711 57.9037 54.8624 57.9187C54.8308 57.9772 54.7991 58.0357 54.769 58.095C54.7555 58.1211 54.7429 58.1479 54.7302 58.174C54.7057 58.223 54.6819 58.2721 54.659 58.3219C54.6455 58.3519 54.632 58.3812 54.6186 58.4112C54.5972 58.4586 54.5766 58.5053 54.556 58.5535C54.5426 58.5843 54.5299 58.6152 54.5173 58.6468C54.4982 58.6942 54.4792 58.7417 54.4602 58.7891C54.4484 58.8199 54.4365 58.8515 54.4246 58.8832C54.4064 58.9322 54.389 58.9812 54.3716 59.031C54.3613 59.061 54.3502 59.0911 54.3407 59.1211C54.3225 59.1749 54.3059 59.2286 54.2892 59.2824C54.2813 59.3085 54.2726 59.3354 54.2647 59.3615C54.2441 59.4318 54.2243 59.5014 54.2061 59.5725C54.203 59.5836 54.1998 59.5939 54.1974 59.6042C54.176 59.6864 54.1562 59.7686 54.138 59.8516C54.1333 59.8722 54.1293 59.8935 54.1254 59.9141C54.1119 59.9757 54.0993 60.0374 54.0874 60.099C54.0818 60.1291 54.0771 60.1583 54.0715 60.1884C54.0652 60.2263 54.0573 60.2651 54.0517 60.303H36.9636C36.2939 60.303 35.75 59.7591 35.75 59.0903V49.6565C35.75 48.9885 36.2947 48.4446 36.9636 48.4446H54.3272C54.997 48.4446 55.5409 48.9885 55.5409 49.6565L55.5417 49.6573ZM61.4792 68.2094C60.5751 68.2094 59.6971 68.0331 58.8714 67.6861C56.7592 66.7983 55.2772 64.9278 54.8656 62.7364C54.8505 62.6557 54.8363 62.5735 54.8244 62.4913C54.7999 62.3269 54.7809 62.1616 54.769 61.9948C54.7563 61.8272 54.75 61.6596 54.75 61.4897C54.75 61.428 54.7508 61.3655 54.7524 61.3031C54.7571 61.1157 54.7706 60.9268 54.792 60.7386C54.9337 59.465 55.4364 58.2642 56.2455 57.2657C57.1947 56.0941 58.5223 55.2671 59.9837 54.9359C60.4722 54.8252 60.9757 54.7691 61.4792 54.7691C65.1897 54.7691 68.2083 57.7835 68.2083 61.4889C68.2083 65.1942 65.1897 68.2086 61.4792 68.2086V68.2094Z" stroke="#333333" stroke-width="0.5" mask="url(#path-8-outside-1_1_4083)"/>
<path d="M65.4375 60.9692L65.542 60.98C65.7794 61.0284 65.958 61.2382 65.958 61.4897C65.9579 61.777 65.7248 62.0103 65.4375 62.0103H57.5205C57.2334 62.0101 57.0001 61.7769 57 61.4897C57 61.2025 57.2333 60.9694 57.5205 60.9692H65.4375Z" fill="#333333" stroke="#333333" stroke-width="0.25"/>
<defs>
<filter id="filter0_d_1_4083" x="4" y="9" width="92" height="91" filterUnits="userSpaceOnUse" color-interpolation-filters="sRGB">
<feFlood flood-opacity="0" result="BackgroundImageFix"/>
<feColorMatrix in="SourceAlpha" type="matrix" values="0 0 0 0 0 0 0 0 0 0 0 0 0 0 0 0 0 0 127 0" result="hardAlpha"/>
<feOffset dy="4"/>
<feGaussianBlur stdDeviation="2"/>
<feComposite in2="hardAlpha" operator="out"/>
<feColorMatrix type="matrix" values="0 0 0 0 0 0 0 0 0 0 0 0 0 0 0 0 0 0 0.25 0"/>
<feBlend mode="normal" in2="BackgroundImageFix" result="effect1_dropShadow_1_4083"/>
<feBlend mode="normal" in="SourceGraphic" in2="effect1_dropShadow_1_4083" result="shape"/>
</filter>
</defs>
</svg>
