<svg width="98" height="98" viewBox="0 0 98 98" fill="none" xmlns="http://www.w3.org/2000/svg">
<rect width="98" height="98" rx="20" fill="#E5EFFF"/>
<path d="M51.333 39.6709V33.4515" stroke="#141B34" stroke-width="2.33228" stroke-linecap="round" stroke-linejoin="round"/>
<path d="M49 42.0032C49 41.2788 49 40.9165 49.1184 40.6308C49.2762 40.2498 49.5789 39.9471 49.9598 39.7893C50.2456 39.671 50.6078 39.671 51.3323 39.671C52.0567 39.671 52.419 39.671 52.7047 39.7893C53.0857 39.9471 53.3884 40.2498 53.5462 40.6308C53.6646 40.9165 53.6646 41.2788 53.6646 42.0032V45.1129C53.6646 45.8374 53.6646 46.1996 53.5462 46.4854C53.3884 46.8664 53.0857 47.169 52.7047 47.3269C52.419 47.4452 52.0567 47.4452 51.3323 47.4452C50.6078 47.4452 50.2456 47.4452 49.9598 47.3269C49.5789 47.169 49.2762 46.8664 49.1184 46.4854C49 46.1996 49 45.8374 49 45.1129V42.0032Z" stroke="#141B34" stroke-width="2.33228"/>
<path d="M51.3332 64.5485C60.6624 64.5485 62.9946 57.5362 62.9946 49C62.9946 40.4639 60.6624 33.4515 51.3332 33.4515C42.004 33.4515 39.6719 40.4638 39.6719 49C39.6719 57.5362 42.004 64.5485 51.3332 64.5485Z" stroke="#141B34" stroke-width="2.33228"/>
<path d="M38.1165 33.4515C36.4766 35.211 35.3729 37.3404 35.0068 39.6709" stroke="#141B34" stroke-width="2.33228" stroke-linecap="round"/>
</svg>
