<svg width="100" height="100" viewBox="0 0 100 100" fill="none" xmlns="http://www.w3.org/2000/svg">
<circle cx="50" cy="50" r="49" stroke="#A4EC18" stroke-width="2"/>
<g filter="url(#filter0_d_1_4064)">
<ellipse cx="50" cy="50.5" rx="42" ry="41.5" fill="#F9F9F9"/>
</g>
<g clip-path="url(#clip0_1_4064)">
<path d="M46.0443 39.5792L45.2406 44.6336C45.1983 44.9168 45.3111 45.2 45.5414 45.368C45.7717 45.5312 46.0725 45.5504 46.3216 45.4112L50.5046 43.0496L54.6876 45.4112C54.7957 45.4736 54.9226 45.5072 55.0448 45.5072C55.1952 45.5072 55.3409 45.464 55.4678 45.368C55.6981 45.2048 55.8156 44.9168 55.7686 44.6336L54.9649 39.5792L58.3771 36.0032C58.5698 35.8016 58.6356 35.5088 58.5463 35.24C58.457 34.976 58.2361 34.7792 57.9588 34.736L53.2729 34.0064L51.1626 29.432C51.0404 29.168 50.7819 29 50.4999 29C50.2179 29 49.9547 29.168 49.8372 29.432L47.7316 34.0064L43.0457 34.736C42.7731 34.7792 42.5475 34.9712 42.4582 35.24C42.3689 35.504 42.4347 35.8016 42.6274 36.0032L46.0396 39.5792H46.0443ZM48.3426 35.4272C48.587 35.3888 48.7938 35.2304 48.8972 35.0048L50.4999 31.5152L52.1026 35.0048C52.206 35.2304 52.4128 35.3888 52.6572 35.4272L56.3185 35.9984L53.6442 38.7968C53.4844 38.9696 53.4092 39.2048 53.4468 39.44L54.0719 43.3424L50.8571 41.528C50.749 41.4656 50.6221 41.432 50.4999 41.432C50.3777 41.432 50.2555 41.4608 50.1427 41.528L46.9279 43.3424L47.553 39.44C47.5906 39.2048 47.5154 38.9648 47.3556 38.7968L44.6813 35.9984L48.3426 35.4272Z" fill="#333333"/>
<path d="M40.0425 52.8656C40.2728 52.7024 40.3903 52.4144 40.3433 52.1312L39.5396 47.0768L42.9518 43.5008C43.1445 43.2992 43.2103 43.0064 43.121 42.7376C43.0317 42.4736 42.8108 42.2768 42.5335 42.2336L37.8476 41.504L35.742 36.9296C35.6198 36.6656 35.3613 36.4976 35.0793 36.4976C34.7973 36.4976 34.5341 36.6656 34.4166 36.9296L32.311 41.504L27.6251 42.2336C27.3525 42.2768 27.1269 42.4688 27.0376 42.7376C26.9483 43.0016 27.0141 43.2992 27.2068 43.5008L30.619 47.0768L29.8153 52.1312C29.773 52.4144 29.8858 52.6976 30.1161 52.8656C30.3464 53.0288 30.6472 53.048 30.8963 52.9088L35.0793 50.5472L39.2623 52.9088C39.3704 52.9712 39.4973 53.0048 39.6195 53.0048C39.7699 53.0048 39.9156 52.9616 40.0425 52.8656ZM38.0262 46.9472L38.6513 50.8496L35.4365 49.0352C35.3284 48.9728 35.2015 48.9392 35.0793 48.9392C34.9571 48.9392 34.8349 48.968 34.7221 49.0352L31.5073 50.8496L32.1324 46.9472C32.17 46.712 32.0948 46.472 31.935 46.304L29.2607 43.5056L32.922 42.9344C33.1664 42.896 33.3732 42.7376 33.4766 42.512L35.0793 39.0224L36.682 42.512C36.7854 42.7376 36.9922 42.896 37.2366 42.9344L40.8979 43.5056L38.2236 46.304C38.0638 46.4768 37.9886 46.712 38.0262 46.9472Z" fill="#333333"/>
<path d="M73.9671 42.7424C73.8778 42.4784 73.6569 42.2816 73.3796 42.2384L68.6937 41.5088L66.5881 36.9344C66.4659 36.6704 66.2074 36.5024 65.9254 36.5024C65.6434 36.5024 65.3802 36.6704 65.2627 36.9344L63.1571 41.5088L58.4712 42.2384C58.1986 42.2816 57.973 42.4736 57.8837 42.7424C57.7944 43.0064 57.8602 43.304 58.0529 43.5056L61.4651 47.0816L60.6614 52.136C60.6191 52.4192 60.7319 52.7024 60.9622 52.8704C61.1925 53.0336 61.4933 53.0528 61.7424 52.9136L65.9254 50.552L70.1084 52.9136C70.2165 52.976 70.3434 53.0096 70.4656 53.0096C70.616 53.0096 70.7617 52.9664 70.8886 52.8704C71.1189 52.7072 71.2364 52.4192 71.1894 52.136L70.3857 47.0816L73.7979 43.5056C73.9906 43.304 74.0564 43.0112 73.9671 42.7424ZM69.0697 46.2992C68.9099 46.472 68.8347 46.7072 68.8723 46.9424L69.4974 50.8448L66.2826 49.0304C66.1745 48.968 66.0476 48.9344 65.9254 48.9344C65.8032 48.9344 65.681 48.9632 65.5682 49.0304L62.3534 50.8448L62.9785 46.9424C63.0161 46.7072 62.9409 46.4672 62.7811 46.2992L60.1068 43.5008L63.7681 42.9296C64.0125 42.8912 64.2193 42.7328 64.3227 42.5072L65.9254 39.0176L67.5281 42.5072C67.6315 42.7328 67.8383 42.8912 68.0827 42.9296L71.744 43.5008L69.0697 46.2992Z" fill="#333333"/>
<path d="M57.1128 56.0001H51.6608C52.3329 54.4785 53.4421 51.7041 53.4421 50.0001C53.4421 47.2401 50.8477 46.3233 50.7349 46.2897C50.4012 46.1793 50.0393 46.3185 49.8654 46.6305L44.2019 56.7537H40.221C39.8168 56.7537 39.4878 57.0897 39.4878 57.5025V70.2513C39.4878 70.6641 39.8168 71.0001 40.221 71.0001H57.1128C58.7343 71.0001 60.0503 69.6561 60.0503 68.0001C60.0503 67.4673 59.914 66.9537 59.6555 66.5025C59.914 66.0465 60.0503 65.5329 60.0503 65.0049C60.0503 64.4769 59.914 63.9585 59.6555 63.5073C59.914 63.0513 60.0503 62.5377 60.0503 62.0097C60.0503 61.4817 59.914 60.9633 59.6555 60.5121C59.914 60.0561 60.0503 59.5425 60.0503 59.0145C60.0503 57.3585 58.7343 56.0145 57.1128 56.0145V56.0001ZM40.9542 58.2513H43.8917V69.5025H40.9542V58.2513ZM58.2032 61.0017C58.4476 61.2753 58.5792 61.6305 58.5792 62.0001C58.5792 62.3697 58.4476 62.7249 58.2032 62.9985C57.9541 63.2817 57.9541 63.7137 58.2032 64.0017C58.4476 64.2753 58.5792 64.6305 58.5792 65.0001C58.5792 65.3697 58.4476 65.7249 58.2032 65.9985C57.9541 66.2817 57.9541 66.7137 58.2032 67.0017C58.4476 67.2753 58.5792 67.6305 58.5792 68.0001C58.5792 68.8257 57.9212 69.4977 57.1128 69.4977H45.3628V57.6945L50.8007 47.9793C51.2989 48.3009 51.971 48.9297 51.971 49.9953C51.971 51.6945 50.4341 55.1985 49.8466 56.4081C49.7338 56.6385 49.7432 56.9169 49.8795 57.1377C50.0158 57.3585 50.2508 57.4929 50.5046 57.4929H57.1128C57.9212 57.4929 58.5792 58.1649 58.5792 58.9905C58.5792 59.3601 58.4476 59.7153 58.2032 59.9889C57.9541 60.2721 57.9541 60.7041 58.2032 60.9921V61.0017Z" fill="#333333"/>
</g>
<defs>
<filter id="filter0_d_1_4064" x="4" y="9" width="92" height="91" filterUnits="userSpaceOnUse" color-interpolation-filters="sRGB">
<feFlood flood-opacity="0" result="BackgroundImageFix"/>
<feColorMatrix in="SourceAlpha" type="matrix" values="0 0 0 0 0 0 0 0 0 0 0 0 0 0 0 0 0 0 127 0" result="hardAlpha"/>
<feOffset dy="4"/>
<feGaussianBlur stdDeviation="2"/>
<feComposite in2="hardAlpha" operator="out"/>
<feColorMatrix type="matrix" values="0 0 0 0 0 0 0 0 0 0 0 0 0 0 0 0 0 0 0.25 0"/>
<feBlend mode="normal" in2="BackgroundImageFix" result="effect1_dropShadow_1_4064"/>
<feBlend mode="normal" in="SourceGraphic" in2="effect1_dropShadow_1_4064" result="shape"/>
</filter>
<clipPath id="clip0_1_4064">
<rect width="47" height="42" fill="white" transform="translate(27 29)"/>
</clipPath>
</defs>
</svg>
