<svg width="100" height="100" viewBox="0 0 100 100" fill="none" xmlns="http://www.w3.org/2000/svg">
<circle cx="50" cy="50" r="49" stroke="#A4EC18" stroke-width="2"/>
<g filter="url(#filter0_d_1_4032)">
<ellipse cx="50" cy="50.5" rx="42" ry="41.5" fill="#F9F9F9"/>
</g>
<path fill-rule="evenodd" clip-rule="evenodd" d="M43.9312 47.8813L48.003 50.2366L43.9312 52.5864V47.8813ZM43.0535 46.3593C42.8702 46.4648 42.7591 46.6593 42.7591 46.8648V53.6029C42.7591 53.9251 43.0202 54.1862 43.348 54.1862C43.4535 54.1862 43.5535 54.1584 43.6424 54.1084L49.4751 50.7421C49.7528 50.581 49.8528 50.22 49.6917 49.9422C49.6417 49.8533 49.5639 49.7811 49.4751 49.7256L43.6424 46.3593C43.4591 46.2537 43.2369 46.2537 43.0535 46.3593ZM69.0729 43.2596L71.617 45.8038C71.8448 46.0316 71.8448 46.4037 71.617 46.6315C71.5059 46.7426 71.356 46.8037 71.2004 46.8037C71.0449 46.8037 70.8949 46.7426 70.7838 46.6315L68.2396 44.0873C68.0174 43.854 68.0286 43.4818 68.2619 43.2596C68.4896 43.043 68.8451 43.043 69.0673 43.2596H69.0729ZM68.7451 35.9271C68.5174 35.6994 68.5118 35.3327 68.7451 35.105L71.2893 32.5608C71.5171 32.3331 71.8892 32.3331 72.117 32.5608C72.3447 32.7886 72.3447 33.1608 72.117 33.3885L69.5728 35.9327C69.4617 36.0438 69.3117 36.1049 69.1562 36.1049C69.0007 36.1049 68.8507 36.0438 68.7396 35.9327L68.7451 35.9271ZM75 39.399C75 39.7211 74.7389 39.9822 74.4112 39.9878H70.8116C70.4894 39.9767 70.2339 39.71 70.245 39.3823C70.2561 39.0712 70.5005 38.8268 70.8116 38.8157H74.4112C74.7334 38.8157 74.9944 39.0768 75 39.399ZM50.8582 39.6767C50.8582 39.3545 51.1193 39.0879 51.4415 39.0879H55.6077C55.9299 39.0879 56.1965 39.349 56.1965 39.6767C56.1965 40.0044 55.9355 40.2655 55.6077 40.2655H51.4415C51.1193 40.2655 50.8582 40.0044 50.8527 39.6823L50.8582 39.6767ZM50.8582 37.7269C50.8582 37.4047 51.1193 37.1437 51.4415 37.1437H54.269C54.5912 37.1548 54.8467 37.4214 54.8356 37.7491C54.8245 38.0602 54.58 38.3046 54.269 38.3157H51.4415C51.1193 38.3157 50.8582 38.0547 50.8527 37.7325L50.8582 37.7269ZM34.3045 64.9572C34.3045 64.635 34.5656 64.374 34.8878 64.3684H34.8989C35.2211 64.3684 35.4877 64.6295 35.4877 64.9572C35.4877 65.285 35.2266 65.5461 34.8989 65.5461H34.8878C34.5656 65.5461 34.3045 65.285 34.3045 64.9572ZM32.8547 64.9572C32.8547 64.635 33.1158 64.374 33.4435 64.3684H33.4491C33.7712 64.3684 34.0379 64.6295 34.0379 64.9572C34.0379 65.285 33.7768 65.5461 33.4491 65.5461H33.438C33.1158 65.5461 32.8547 65.285 32.8491 64.9572H32.8547ZM28.4941 64.9572C28.4941 64.635 28.7551 64.374 29.0773 64.3684H29.0884C29.4106 64.3684 29.6773 64.6295 29.6773 64.9572C29.6773 65.285 29.4162 65.5461 29.0884 65.5461H29.0773C28.7551 65.5461 28.4941 65.285 28.4941 64.9572ZM29.9439 64.9572C29.9439 64.635 30.205 64.374 30.5272 64.3684H30.5383C30.8605 64.3684 31.1271 64.6295 31.1271 64.9572C31.1271 65.285 30.866 65.5461 30.5383 65.5461H30.5272C30.205 65.5461 29.9439 65.285 29.9439 64.9628V64.9572ZM31.3937 64.9572C31.3937 64.635 31.6548 64.3684 31.9826 64.3684H31.9937C32.3159 64.3684 32.5825 64.6295 32.5825 64.9572C32.5825 65.285 32.3214 65.5461 31.9937 65.5461H31.9826C31.6604 65.5461 31.3937 65.285 31.3937 64.9628V64.9572ZM60.8793 64.9572C60.8793 64.635 61.1404 64.3684 61.4682 64.3684H61.4793C61.8015 64.3684 62.0681 64.6295 62.0681 64.9572C62.0681 65.285 61.807 65.5461 61.4793 65.5461H61.4682C61.146 65.5461 60.8793 65.285 60.8793 64.9572ZM59.4295 64.9572C59.4295 64.635 59.6906 64.3684 60.0183 64.3684H60.0294C60.3516 64.3684 60.6183 64.6295 60.6183 64.9572C60.6183 65.285 60.3572 65.5461 60.0294 65.5461H60.0183C59.6961 65.5461 59.4295 65.285 59.4295 64.9572ZM55.0689 64.9572C55.0689 64.635 55.33 64.374 55.6577 64.3684H55.6688C55.991 64.3684 56.2576 64.6295 56.2576 64.9572C56.2576 65.285 55.9966 65.5461 55.6688 65.5461H55.6577C55.3355 65.5461 55.0744 65.285 55.0689 64.9572ZM56.5187 64.9572C56.5187 64.635 56.7798 64.374 57.102 64.3684H57.1131C57.4353 64.3684 57.7019 64.6295 57.7019 64.9572C57.7019 65.285 57.4408 65.5461 57.1131 65.5461H57.102C56.7798 65.5461 56.5187 65.285 56.5187 64.9572ZM57.9686 64.9572C57.9686 64.635 58.2296 64.3684 58.5574 64.3684H58.5685C58.8907 64.3684 59.1573 64.6295 59.1573 64.9572C59.1573 65.285 58.8962 65.5461 58.5685 65.5461H58.5574C58.2352 65.5461 57.9686 65.285 57.9686 64.9572ZM26.1776 63.0519V64.5295C26.1776 65.8182 27.2275 66.8681 28.5163 66.8681H62.0403C63.3291 66.8681 64.379 65.8182 64.379 64.5295V63.0519H52.5914L51.9415 65.0572C51.8637 65.2961 51.6415 65.4627 51.386 65.4627H39.1762C38.9207 65.4627 38.6985 65.2961 38.6207 65.0572L37.9652 63.0519H26.1776ZM27.5497 38.7324V61.8798H38.393C38.6485 61.8798 38.8707 62.0409 38.9485 62.2853L39.5984 64.2906H50.9527L51.6026 62.2853C51.6804 62.0464 51.9026 61.8798 52.1581 61.8798H63.0013V47.6147L61.8126 46.7926V60.1078C61.8126 60.43 61.5515 60.691 61.2238 60.691H29.3273C29.0051 60.691 28.744 60.43 28.7385 60.1078V40.36C28.7385 40.0378 28.9996 39.7767 29.3217 39.7767H46.1032V38.5879H27.6941C27.6164 38.5879 27.5497 38.6546 27.5497 38.7324ZM47.2309 42.9652C46.5365 42.5653 46.1088 41.8209 46.1088 41.021V40.9488H29.9106V59.5189H60.6405V45.976L58.4018 44.4262H55.5799V49.8756C55.5799 50.8643 54.78 51.6587 53.7912 51.6643H52.658C51.8692 55.7416 47.9197 58.408 43.8368 57.6192C39.7595 56.8304 37.0931 52.8808 37.8819 48.7979C38.5652 45.2594 41.6648 42.7041 45.27 42.7041C45.931 42.7041 46.5865 42.7875 47.2198 42.9597L47.2309 42.9652ZM47.2753 38.1713C47.2753 37.5825 47.753 37.1048 48.3418 37.1048H48.664V42.0931H48.3418C47.753 42.0931 47.2753 41.6154 47.2753 41.0266V38.1769V38.1713ZM52.6803 50.4922C52.3414 50.4922 52.0637 50.2144 52.0637 49.8756V44.4206H54.4134V49.87C54.4134 50.2089 54.1357 50.4866 53.7968 50.4866H52.6803V50.4922ZM50.8916 47.2592C49.2529 44.1595 45.4033 42.9763 42.3036 44.615C39.204 46.2537 38.0208 50.1033 39.6595 53.203C41.2982 56.3026 45.1478 57.4858 48.2474 55.8471C50.0028 54.9195 51.2249 53.2196 51.547 51.2587C51.1304 50.9199 50.8916 50.4144 50.8916 49.8756V47.2592ZM50.8916 45.2205C50.636 44.9317 50.3583 44.6595 50.0583 44.4151C50.125 44.4262 50.1861 44.4262 50.2527 44.4317H50.8916V45.2261V45.2205ZM48.7251 43.2596C48.7585 43.3818 48.8085 43.5041 48.8696 43.6152C48.614 43.4763 48.353 43.3541 48.0863 43.2485C48.1696 43.2596 48.2585 43.2652 48.3474 43.2652H48.7307L48.7251 43.2596ZM49.8361 36.3493V42.8375C49.8361 43.0652 50.0194 43.2541 50.2527 43.2541H58.2796V35.9382H50.2527C50.025 35.9382 49.8361 36.1215 49.8361 36.3548V36.3493ZM64.8845 47.4869L59.4517 43.7207V35.4661L64.8845 31.6998V47.4814V47.4869ZM67.8286 39.5934C67.8286 40.671 67.1009 41.6098 66.0566 41.882V37.3103C67.1009 37.5825 67.8286 38.5213 67.8286 39.5989V39.5934ZM28.5163 68.0402H62.0403C63.979 68.0402 65.5455 66.4682 65.551 64.5295V62.4686C65.551 62.1464 65.29 61.8853 64.9678 61.8798H64.179V48.4257L65.1344 49.0868C65.4011 49.2701 65.7677 49.2034 65.951 48.9368C66.0177 48.8368 66.0566 48.7257 66.0566 48.6035V43.0763C67.9786 42.7541 69.2784 40.9321 68.9562 39.0101C68.7063 37.5269 67.5453 36.3604 66.0566 36.1104V30.5833C66.0566 30.2611 65.7899 30 65.4677 30C65.3511 30 65.2344 30.0389 65.1344 30.1055L58.4074 34.7661H50.2527C49.5417 34.7661 48.914 35.2439 48.7251 35.9327H48.3418C47.3975 35.9327 46.5532 36.5271 46.2365 37.4158H27.6941C26.9664 37.4158 26.3776 38.0047 26.3776 38.7324V61.8798H25.5888C25.2666 61.8798 25 62.1409 25 62.4686V64.5295C25 66.4682 26.572 68.0347 28.5107 68.0402H28.5163Z" fill="#333333"/>
<defs>
<filter id="filter0_d_1_4032" x="4" y="9" width="92" height="91" filterUnits="userSpaceOnUse" color-interpolation-filters="sRGB">
<feFlood flood-opacity="0" result="BackgroundImageFix"/>
<feColorMatrix in="SourceAlpha" type="matrix" values="0 0 0 0 0 0 0 0 0 0 0 0 0 0 0 0 0 0 127 0" result="hardAlpha"/>
<feOffset dy="4"/>
<feGaussianBlur stdDeviation="2"/>
<feComposite in2="hardAlpha" operator="out"/>
<feColorMatrix type="matrix" values="0 0 0 0 0 0 0 0 0 0 0 0 0 0 0 0 0 0 0.25 0"/>
<feBlend mode="normal" in2="BackgroundImageFix" result="effect1_dropShadow_1_4032"/>
<feBlend mode="normal" in="SourceGraphic" in2="effect1_dropShadow_1_4032" result="shape"/>
</filter>
</defs>
</svg>
