<svg width="100" height="100" viewBox="0 0 100 100" fill="none" xmlns="http://www.w3.org/2000/svg">
<circle cx="50" cy="50" r="49" stroke="#A4EC18" stroke-width="2"/>
<g filter="url(#filter0_d_1_4048)">
<ellipse cx="50" cy="50.5" rx="42" ry="41.5" fill="#F9F9F9"/>
</g>
<g clip-path="url(#clip0_1_4048)">
<path fill-rule="evenodd" clip-rule="evenodd" d="M30.2337 57.3019V70.5282C30.2337 70.6066 30.3005 70.6693 30.3776 70.6745H35.04C35.1222 70.6745 35.1839 70.6118 35.1891 70.5282V57.3019C35.1891 57.2183 35.1222 57.1504 35.04 57.1504H30.3776C30.2954 57.1504 30.2337 57.2183 30.2337 57.3019ZM37.6925 59.1205H36.4176V68.7044H39.9234C39.9954 68.7044 40.0673 68.7149 40.1342 68.741L47.2177 71.3852C48.8009 72.007 50.5795 71.8503 52.0342 70.9567L67.9695 61.5818C68.9462 60.9913 69.2649 59.711 68.684 58.7181C68.4116 58.253 67.9695 57.9081 67.4555 57.767C66.9363 57.6259 66.3811 57.6991 65.9134 57.9656L65.862 57.9969L56.2854 62.6739L56.1825 62.7837C55.6839 63.3062 55.0002 63.6041 54.2857 63.6146H46.9349C46.8732 63.625 46.8116 63.625 46.7499 63.6146L43.8815 62.9561C43.5525 62.883 43.3418 62.5485 43.4137 62.2089C43.4857 61.8744 43.8147 61.6602 44.1488 61.7385L46.9966 62.3918H54.2857C55.0979 62.3865 55.7507 61.7124 55.7456 60.8867C55.7456 60.4948 55.5863 60.1186 55.3138 59.8416C55.0414 59.5594 54.6713 59.4026 54.2857 59.4026H48.8574C48.7701 59.4026 48.6878 59.3817 48.6107 59.3452L42.9922 56.7375C42.3857 56.4553 41.6763 56.5181 41.1314 56.91L38.0471 59.0003C37.9392 59.0891 37.8055 59.1361 37.6667 59.1361L37.6925 59.1205ZM36.4176 57.8663H37.5074L40.4477 55.8753C41.3422 55.243 42.5039 55.1332 43.496 55.5983L48.986 58.0962H54.2857C55.7816 58.0962 56.9896 59.3399 56.9844 60.8606C56.9844 60.892 56.9844 60.9233 56.9844 60.9547L65.2811 56.8995C66.9106 56.0895 68.8742 56.7793 69.6659 58.4307C70.3804 59.92 69.9126 61.7124 68.571 62.6478L52.6357 72.0227C50.8673 73.1097 48.7032 73.303 46.7756 72.5453L39.836 69.9586H36.4176C36.4176 70.5595 36.4793 71.0403 36.0167 71.5263C35.7545 71.7876 35.405 71.9391 35.04 71.9391H30.3776C29.6169 71.9391 29.0051 71.312 29 70.5386V57.3019C29 56.5285 29.6169 55.9014 30.3776 55.9014H35.04C35.8008 55.9014 36.4176 56.5285 36.4176 57.3019V57.8663ZM52.4917 39.5763C52.0599 39.7592 51.6436 39.9839 51.2529 40.2452C51.0061 40.4386 50.6566 40.4177 50.4356 40.1982L49.4075 39.153H48.8831L48.0607 39.9682V40.5222L49.0888 41.5673C49.2944 41.7763 49.3252 42.1056 49.1659 42.3564C48.6313 43.1611 48.256 44.0652 48.0607 45.0163C48.0093 45.3194 47.7523 45.5388 47.449 45.5388H46.0302L45.6447 45.9308V47.0857L46.0302 47.4776H47.4593C47.7574 47.4776 48.0144 47.6971 48.0658 48.0002C48.2509 48.9512 48.6158 49.8553 49.1402 50.6653C49.3304 50.9161 49.3098 51.2714 49.0888 51.4962L48.0607 52.5413V53.0952L48.8626 53.9104H49.4075L50.4356 52.8653C50.6463 52.6563 50.965 52.6249 51.2118 52.7869C52.0085 53.3304 52.903 53.7066 53.8437 53.9C54.1418 53.9522 54.3577 54.2135 54.3577 54.5218V55.9746L54.7432 56.3665H55.8741L56.2597 55.9746V54.5114C56.2597 54.2083 56.4807 53.947 56.7737 53.8948C57.2466 53.8007 57.7093 53.6596 58.1565 53.4715C58.5883 53.2886 59.0046 53.0639 59.3953 52.8026C59.642 52.6092 59.9916 52.6301 60.2075 52.8548L61.2356 53.9H61.7805L62.5824 53.0848V52.5099L61.5543 51.4648C61.3487 51.2558 61.3127 50.9265 61.4772 50.6809C62.0066 49.871 62.3819 48.9617 62.5721 48.0054C62.6235 47.7023 62.8805 47.4828 63.1838 47.4828H64.6128L65.0035 47.0909V45.9412L64.6385 45.5754H63.2198C62.9114 45.5859 62.6389 45.3612 62.5824 45.0529C62.4898 44.5721 62.351 44.1018 62.166 43.6471C61.9861 43.2082 61.765 42.7849 61.508 42.3877C61.3127 42.1421 61.3384 41.7816 61.5594 41.5621L62.5875 40.5169V39.9682L61.7856 39.153H61.2099L60.1818 40.1564C59.9762 40.3602 59.6575 40.3863 59.4159 40.2243C58.6242 39.6913 57.735 39.3255 56.7994 39.1426C56.5064 39.0903 56.2905 38.8343 56.2854 38.5312V37.0732L55.8998 36.6813H54.7432L54.3577 37.0732V38.5312C54.3577 38.8343 54.1367 39.0956 53.8437 39.1426C53.3707 39.2419 52.9081 39.383 52.4609 39.5659L52.4917 39.5763ZM50.9496 38.9597C51.6333 38.5416 52.3684 38.2176 53.1394 38.0086V36.8119C53.1394 36.6447 53.2062 36.4827 53.3245 36.3677L54.0647 35.61C54.1829 35.495 54.3371 35.4271 54.5016 35.4271H56.1466C56.3111 35.4271 56.4704 35.495 56.5835 35.6152L57.3134 36.3677C57.4265 36.4879 57.4934 36.6447 57.4934 36.8119V38.0086C58.249 38.202 58.9738 38.505 59.6472 38.9074L60.5262 38.0609C60.6393 37.9511 60.7884 37.8884 60.9477 37.8884H62.0066C62.1711 37.8884 62.3253 37.9511 62.4436 38.0713L63.6053 39.2523C63.7184 39.3673 63.7852 39.5241 63.7852 39.6913V40.7678C63.7852 40.935 63.7184 41.097 63.6002 41.212L62.7726 42.0847C63.1735 42.7797 63.4768 43.5322 63.6773 44.3108H64.911C65.0703 44.3108 65.2194 44.3787 65.3325 44.4937L66.0522 45.241C66.1652 45.3559 66.2321 45.5127 66.2321 45.6799V47.3522C66.2321 47.5194 66.1652 47.6814 66.047 47.8016L65.3068 48.5541C65.1886 48.669 65.0343 48.737 64.8699 48.737H63.6773C63.4768 49.5104 63.1735 50.2577 62.7726 50.9475L63.6207 51.8097C63.7338 51.9299 63.8006 52.0867 63.8006 52.2539V53.3251C63.8006 53.4924 63.7338 53.6544 63.6156 53.7693L62.4539 54.9503C62.3408 55.0653 62.1866 55.1332 62.0221 55.1332H60.9631C60.7986 55.1332 60.6393 55.0653 60.5262 54.9451L59.6832 54.0881C59.0046 54.4957 58.2696 54.804 57.5088 55.0078V56.2202C57.5088 56.3874 57.4419 56.5494 57.3237 56.6696L56.5784 57.4221C56.4653 57.5423 56.3111 57.605 56.1466 57.605H54.5016C54.3371 57.605 54.1778 57.5423 54.0647 57.4221L53.3193 56.6644C53.2062 56.5442 53.1394 56.3874 53.1394 56.2202V55.0078C52.3786 54.804 51.6436 54.4957 50.965 54.0881L50.1168 54.9503C50.0038 55.0653 49.8495 55.1332 49.6851 55.1332H48.6261C48.4616 55.1332 48.3023 55.0653 48.1892 54.9451L47.0326 53.7693C46.9195 53.6491 46.8527 53.4924 46.8527 53.3251V52.2539C46.8527 52.0867 46.9144 51.9247 47.0326 51.8045L47.8756 50.9475C47.4747 50.2577 47.1714 49.5104 46.9709 48.737H45.7783C45.6138 48.737 45.4545 48.669 45.3363 48.5489L44.596 47.7964C44.4778 47.6814 44.4161 47.5194 44.4161 47.3522V45.6799C44.4161 45.5127 44.4829 45.3507 44.6012 45.2358L45.3414 44.478C45.4596 44.3631 45.6138 44.2951 45.7783 44.2951H46.9709C47.1714 43.5217 47.4747 42.7744 47.8756 42.0847L47.0326 41.2276C46.9195 41.1074 46.8527 40.9507 46.8527 40.7835V39.707C46.8527 39.5397 46.9195 39.383 47.0326 39.2628L48.1892 38.087C48.3023 37.9668 48.4616 37.9041 48.6261 37.9041H49.6851C49.8495 37.9041 50.0038 37.9668 50.122 38.087L50.965 38.944L50.9496 38.9597ZM59.2462 50.5033C57.0821 52.7085 53.5712 52.7085 51.402 50.5033C49.2327 48.298 49.2327 44.7341 51.402 42.5288C53.5712 40.3236 57.077 40.3236 59.2462 42.5288C61.4052 44.7289 61.4052 48.298 59.2462 50.498V50.5033ZM55.3241 50.9004C52.9441 50.9004 51.0113 48.9356 51.0113 46.5161C51.0113 44.0965 52.9441 42.1317 55.3241 42.1317C57.7041 42.1317 59.6369 44.0965 59.6369 46.5161C59.6369 48.9356 57.7144 50.8952 55.3344 50.9004C55.3344 50.9004 55.3292 50.9004 55.3241 50.9004ZM55.8793 29.9976L55.3241 28.4299L54.7689 29.9976C54.6867 30.238 54.4656 30.4 54.2138 30.4052L52.5945 30.4627L53.8334 31.4451C54.0596 31.5967 54.1624 31.8789 54.0853 32.1401L53.6432 33.7078L54.9694 32.7829C55.1802 32.6366 55.4577 32.6366 55.6685 32.7829L57.005 33.7026L56.5629 32.1349C56.4961 31.8841 56.5938 31.6176 56.7994 31.466L58.0742 30.4522L56.4807 30.3948C56.2237 30.3948 55.9923 30.2328 55.905 29.9871L55.8793 29.9976ZM55.8793 26.4128C55.7662 26.0888 55.4166 25.9215 55.0979 26.0365C54.9283 26.0992 54.7895 26.2351 54.7278 26.4128L53.7357 29.1719L50.8519 29.2764C50.5127 29.2921 50.2505 29.5848 50.2659 29.9349C50.2762 30.1126 50.3584 30.2798 50.4921 30.3895L52.7693 32.1976L51.9725 35.0247C51.88 35.3592 52.0753 35.7041 52.4043 35.7981C52.5791 35.8452 52.759 35.819 52.9081 35.7145L55.3035 34.0736L57.6887 35.7093C57.9663 35.9079 58.3518 35.8347 58.5471 35.5525C58.6499 35.401 58.6859 35.2076 58.6345 35.0247L57.8378 32.1976L60.0995 30.4C60.372 30.1962 60.4337 29.8095 60.2332 29.5325C60.1201 29.3757 59.9453 29.2817 59.7551 29.2764L56.8662 29.1719L55.8998 26.4023L55.8793 26.4128ZM64.8544 31.8945L64.4226 30.6926L63.996 31.8945C63.9086 32.1349 63.6876 32.2969 63.4357 32.3021L62.1866 32.3492L63.1375 33.1069C63.3586 33.2584 63.4614 33.5354 63.3894 33.7967L63.045 35.0195L64.0731 34.3193C64.2839 34.1729 64.5614 34.1729 64.7722 34.3193L65.8003 35.03L65.4559 33.8071C65.389 33.5615 65.4713 33.3002 65.6666 33.1435L66.6587 32.3596L65.4302 32.3178C65.168 32.3178 64.9367 32.1558 64.8493 31.905V31.8945H64.8544ZM65.0241 28.6598L65.8877 31.0741L68.4065 31.1629C68.7457 31.1682 69.013 31.4556 69.0079 31.7952C69.0079 31.9886 68.9102 32.1715 68.756 32.2865L66.777 33.8542L67.476 36.3259C67.5634 36.6604 67.3681 37.0053 67.0391 37.0941C66.8643 37.1411 66.6793 37.1098 66.5302 37.0053L64.4432 35.5787L62.351 37.0157C62.0683 37.2091 61.6828 37.1307 61.4977 36.838C61.4001 36.6865 61.3692 36.4984 61.4155 36.3259L62.1095 33.8542L60.1201 32.2865C59.8579 32.067 59.8168 31.675 60.0327 31.4033C60.1458 31.2622 60.3052 31.1786 60.4799 31.1734L62.9679 31.0741L63.8315 28.6598C63.9497 28.3358 64.3044 28.1686 64.6231 28.2888C64.7928 28.3515 64.9264 28.4874 64.9881 28.6598H65.0241ZM46.6522 31.8945L46.2255 30.6926L45.7938 31.8893C45.7115 32.1297 45.4905 32.2917 45.2386 32.2969L43.9843 32.3439L44.9353 33.1017C45.1563 33.2532 45.2592 33.5302 45.1872 33.7915L44.8428 35.0143L45.8709 34.314C46.0816 34.1677 46.3541 34.1677 46.5648 34.314L47.5929 35.0247L47.2485 33.8019C47.1817 33.5563 47.2691 33.295 47.4644 33.1382L48.4514 32.3544L47.2228 32.3126C46.9606 32.3126 46.7293 32.1506 46.6419 31.8998H46.6522V31.8945ZM46.8013 28.6598L47.6649 31.0741L50.1888 31.1629C50.5281 31.1734 50.7902 31.4608 50.7851 31.8005C50.78 31.9938 50.6874 32.1715 50.5332 32.2865L48.5542 33.8542L49.2533 36.3259C49.3406 36.6604 49.1453 37.0053 48.8163 37.0941C48.6415 37.1411 48.4565 37.1098 48.3074 37.0053L46.2513 35.5787L44.154 37.0157C43.8712 37.2091 43.4857 37.1307 43.3007 36.838C43.203 36.6865 43.1721 36.4984 43.2184 36.3259L43.9175 33.8542L41.8922 32.2603C41.6249 32.0513 41.5786 31.6594 41.7842 31.3876C41.8973 31.2413 42.0669 31.1525 42.2469 31.1473L44.7708 31.0584L45.6344 28.6441C45.7475 28.3201 46.1022 28.1477 46.4209 28.2627C46.6008 28.3254 46.7396 28.4717 46.8013 28.6598Z" fill="#333333"/>
</g>
<defs>
<filter id="filter0_d_1_4048" x="4" y="9" width="92" height="91" filterUnits="userSpaceOnUse" color-interpolation-filters="sRGB">
<feFlood flood-opacity="0" result="BackgroundImageFix"/>
<feColorMatrix in="SourceAlpha" type="matrix" values="0 0 0 0 0 0 0 0 0 0 0 0 0 0 0 0 0 0 127 0" result="hardAlpha"/>
<feOffset dy="4"/>
<feGaussianBlur stdDeviation="2"/>
<feComposite in2="hardAlpha" operator="out"/>
<feColorMatrix type="matrix" values="0 0 0 0 0 0 0 0 0 0 0 0 0 0 0 0 0 0 0.25 0"/>
<feBlend mode="normal" in2="BackgroundImageFix" result="effect1_dropShadow_1_4048"/>
<feBlend mode="normal" in="SourceGraphic" in2="effect1_dropShadow_1_4048" result="shape"/>
</filter>
<clipPath id="clip0_1_4048">
<rect width="41" height="47" fill="white" transform="translate(29 26)"/>
</clipPath>
</defs>
</svg>
