<svg width="100" height="100" viewBox="0 0 100 100" fill="none" xmlns="http://www.w3.org/2000/svg">
<circle cx="50" cy="50" r="49" stroke="#A4EC18" stroke-width="2"/>
<g filter="url(#filter0_d_64_1609)">
<ellipse cx="50" cy="50.5" rx="42" ry="41.5" fill="#F9F9F9"/>
</g>
<path d="M69.409 33.7439H39.7848C39.4431 33.7439 39.1503 34.0367 39.1503 34.3784V45.2617H31.6345C31.2928 45.2617 31 45.5545 31 45.8962V66.8332C31 69.4199 33.0986 71.5185 35.6852 71.5185H65.3094C67.8961 71.5185 69.9947 69.4199 69.9947 66.8332V34.3784C70.0435 34.0367 69.7506 33.7439 69.409 33.7439ZM35.7828 70.2495H35.6852C33.7818 70.2495 32.2689 68.6878 32.2689 66.7844V46.5306H39.1503V66.8332C39.1503 68.6878 37.6374 70.2007 35.7828 70.2495ZM68.7746 66.8332C68.7746 68.7366 67.2128 70.2983 65.3094 70.2983H42.6154H38.9063C39.8336 69.4199 40.4192 68.1998 40.4192 66.882V35.0128H68.7746V66.8332Z" fill="#333333"/>
<path d="M58.7209 40.2838H65.3095C65.6511 40.2838 65.9439 39.991 65.9439 39.6493C65.9439 39.3077 65.6511 39.0149 65.3095 39.0149H58.7209C58.3793 39.0149 58.0864 39.3126 58.0864 39.6493C58.0864 39.9861 58.3793 40.2838 58.7209 40.2838Z" fill="#333333"/>
<path d="M58.7209 45.2128H65.3095C65.6511 45.2128 65.9439 44.9199 65.9439 44.5783C65.9439 44.2367 65.6511 43.9438 65.3095 43.9438H58.7209C58.3793 43.9438 58.0864 44.2367 58.0864 44.5783C58.0864 44.9199 58.3793 45.2128 58.7209 45.2128Z" fill="#333333"/>
<path d="M58.7209 50.1422H65.3095C65.6511 50.1422 65.9439 49.8494 65.9439 49.5077C65.9439 49.1661 65.6511 48.8733 65.3095 48.8733H58.7209C58.3793 48.8733 58.0864 49.171 58.0864 49.5077C58.0864 49.8445 58.3793 50.1422 58.7209 50.1422Z" fill="#333333"/>
<path d="M43.8845 55.0714H65.3096C65.6512 55.0714 65.944 54.7786 65.944 54.4369C65.944 54.0953 65.6512 53.8025 65.3096 53.8025H43.8845C43.5428 53.8025 43.25 54.0953 43.25 54.4369C43.25 54.7786 43.5428 55.0714 43.8845 55.0714Z" fill="#333333"/>
<path d="M43.8845 60.0006H65.3096C65.6512 60.0006 65.944 59.7078 65.944 59.3661C65.944 59.0245 65.6512 58.7317 65.3096 58.7317H43.8845C43.5428 58.7317 43.25 59.0245 43.25 59.3661C43.25 59.7078 43.5428 60.0006 43.8845 60.0006Z" fill="#333333"/>
<path d="M43.8845 64.9298H65.3096C65.6512 64.9298 65.944 64.637 65.944 64.2953C65.944 63.9537 65.6512 63.6609 65.3096 63.6609H43.8845C43.5428 63.6609 43.25 63.9586 43.25 64.2953C43.25 64.637 43.5428 64.9298 43.8845 64.9298Z" fill="#333333"/>
<path d="M43.8845 50.1423H54.8654C55.2071 50.1423 55.4999 49.8495 55.4999 49.5078V39.6493C55.4999 39.3077 55.2071 39.0149 54.8654 39.0149H43.8845C43.5428 39.0149 43.25 39.3126 43.25 39.6493V49.5078C43.25 49.8495 43.5428 50.1423 43.8845 50.1423ZM44.5189 40.2838H54.231V48.8734H44.5189V40.2838Z" fill="#333333"/>
<circle cx="40.498" cy="35.7712" r="8.39615" fill="#F9F9F9" stroke="#333333" stroke-width="1.25"/>
<path d="M40.3899 38.2414L42.4803 40.3518C42.5825 40.455 42.7103 40.5015 42.8432 40.5015C42.9761 40.5015 43.1038 40.4499 43.206 40.3518L44.8415 38.7006C45.0409 38.4994 45.0409 38.1743 44.8415 37.973L42.7512 35.8626L44.8415 33.7521C45.0409 33.5509 45.0409 33.2258 44.8415 33.0246L43.206 31.3733C43.0067 31.1721 42.6847 31.1721 42.4854 31.3733L40.395 33.4838L38.3047 31.3733C38.1054 31.1721 37.7834 31.1721 37.5841 31.3733L35.9486 33.0246C35.7492 33.2258 35.7492 33.5509 35.9486 33.7521L38.0389 35.8626L35.9486 37.973C35.7492 38.1743 35.7492 38.4994 35.9486 38.7006L37.5841 40.3518C37.7834 40.5531 38.1054 40.5531 38.3047 40.3518L40.395 38.2414H40.3899ZM37.0219 38.3394L39.1122 36.2289C39.3115 36.0277 39.3115 35.7026 39.1122 35.5014L37.0219 33.3909L37.9367 32.4673L40.0271 34.5777C40.2264 34.779 40.5484 34.779 40.7477 34.5777L42.8381 32.4673L43.7529 33.3909L41.6625 35.5014C41.4632 35.7026 41.4632 36.0277 41.6625 36.2289L43.7529 38.3394L42.8381 39.263L40.7477 37.1526C40.6455 37.0494 40.5177 37.0029 40.3848 37.0029C40.2519 37.0029 40.1242 37.0545 40.022 37.1526L37.9316 39.263L37.0167 38.3394H37.0219Z" fill="#333333"/>
<defs>
<filter id="filter0_d_64_1609" x="4" y="9" width="92" height="91" filterUnits="userSpaceOnUse" color-interpolation-filters="sRGB">
<feFlood flood-opacity="0" result="BackgroundImageFix"/>
<feColorMatrix in="SourceAlpha" type="matrix" values="0 0 0 0 0 0 0 0 0 0 0 0 0 0 0 0 0 0 127 0" result="hardAlpha"/>
<feOffset dy="4"/>
<feGaussianBlur stdDeviation="2"/>
<feComposite in2="hardAlpha" operator="out"/>
<feColorMatrix type="matrix" values="0 0 0 0 0 0 0 0 0 0 0 0 0 0 0 0 0 0 0.25 0"/>
<feBlend mode="normal" in2="BackgroundImageFix" result="effect1_dropShadow_64_1609"/>
<feBlend mode="normal" in="SourceGraphic" in2="effect1_dropShadow_64_1609" result="shape"/>
</filter>
</defs>
</svg>
