<svg width="98" height="98" viewBox="0 0 98 98" fill="none" xmlns="http://www.w3.org/2000/svg">
<rect width="98" height="98" rx="20" fill="#E5EFFF"/>
<path d="M59.6902 59.6888L63.4457 63.4444M61.5679 53.1166C61.5679 48.4498 57.7848 44.6666 53.118 44.6666C48.4512 44.6666 44.668 48.4498 44.668 53.1166C44.668 57.7834 48.4512 61.5666 53.118 61.5666C57.7848 61.5666 61.5679 57.7834 61.5679 53.1166Z" stroke="#141B34" stroke-width="2.16666" stroke-linecap="round" stroke-linejoin="round"/>
<path d="M34.5566 40.3333C34.7451 38.4043 35.1723 37.1069 36.1401 36.139C37.108 35.1712 38.4054 34.744 40.3344 34.5555M40.3344 63.4444C38.4054 63.2559 37.108 62.8288 36.1401 61.8609C35.1723 60.8931 34.7451 59.5957 34.5566 57.6666M63.4455 40.3333C63.257 38.4043 62.8299 37.1069 61.862 36.139C60.8942 35.1712 59.5968 34.744 57.6677 34.5555M34.5566 46.1111L34.5566 51.8889M51.89 34.5555L46.1122 34.5555" stroke="#141B34" stroke-width="2.16666" stroke-linecap="round"/>
</svg>
