<svg width="73" height="72" viewBox="0 0 73 72" fill="none" xmlns="http://www.w3.org/2000/svg">
<g clip-path="url(#clip0_243_1901)">
<path d="M54.4779 24.1648C53.3696 22.9962 51.5219 22.9448 50.3515 24.0558L31.7172 41.728L22.8291 32.6025C21.7034 31.4475 19.8577 31.4222 18.7018 32.548C17.5468 33.6728 17.5225 35.5204 18.6472 36.6754L29.5445 47.8636C30.1156 48.4503 30.8745 48.7461 31.6355 48.7461C32.3574 48.7461 33.0794 48.4794 33.6447 47.9454L54.369 28.2913C55.5385 27.1821 55.588 25.3344 54.4779 24.1648Z" fill="#A3E503"/>
<path d="M36.5 0C16.6494 0 0.5 16.1494 0.5 36C0.5 55.8506 16.6494 72 36.5 72C56.3506 72 72.5 55.8506 72.5 36C72.5 16.1494 56.3506 0 36.5 0ZM36.5 66.1622C19.869 66.1622 6.33777 52.6321 6.33777 36C6.33777 19.369 19.8688 5.83777 36.5 5.83777C53.132 5.83777 66.6622 19.3688 66.6622 36C66.6622 52.632 53.132 66.1622 36.5 66.1622Z" fill="#A3E503"/>
</g>
<defs>
<clipPath id="clip0_243_1901">
<rect width="72" height="72" fill="white" transform="translate(0.5)"/>
</clipPath>
</defs>
</svg>
