<svg width="63" height="63" viewBox="0 0 63 63" fill="none" xmlns="http://www.w3.org/2000/svg">
<path d="M31.1977 62.5226C48.4277 62.5226 62.3954 48.5549 62.3954 31.3249C62.3954 14.0949 48.4277 0.127197 31.1977 0.127197C13.9677 0.127197 0 14.0949 0 31.3249C0 48.5549 13.9677 62.5226 31.1977 62.5226Z" fill="#34E0A1"/>
<path d="M50.4663 25.2383L54.231 21.1422H45.8822C41.703 18.2869 36.6554 16.6245 31.1968 16.6245C25.7382 16.6245 20.7116 18.2904 16.5393 21.1422H8.17041L11.9351 25.2383C9.62732 27.3441 8.1809 30.376 8.1809 33.7437C8.1809 40.0986 13.3326 45.2503 19.6875 45.2503C22.7063 45.2503 25.4566 44.0863 27.5099 42.1826L31.1977 46.1982L34.8854 42.1861C36.9387 44.089 39.6855 45.2503 42.7043 45.2503C49.0593 45.2503 54.2179 40.0986 54.2179 33.7437C54.2214 30.3725 52.775 27.3406 50.4672 25.2383H50.4663ZM19.691 41.5311C15.3894 41.5311 11.9036 38.0453 11.9036 33.7437C11.9036 29.442 15.3894 25.9563 19.691 25.9563C23.9927 25.9563 27.4784 29.442 27.4784 33.7437C27.4784 38.0453 23.9927 41.5311 19.691 41.5311ZM31.2012 33.5172C31.2012 28.3926 27.4749 23.9939 22.5568 22.1155C25.2161 21.0031 28.1343 20.3866 31.1977 20.3866C34.261 20.3866 37.1827 21.0031 39.8421 22.1155C34.9274 23.9974 31.2012 28.3935 31.2012 33.5172ZM42.7078 41.5311C38.4061 41.5311 34.9204 38.0453 34.9204 33.7437C34.9204 29.442 38.4061 25.9563 42.7078 25.9563C47.0094 25.9563 50.4952 29.442 50.4952 33.7437C50.4952 38.0453 47.0094 41.5311 42.7078 41.5311ZM42.7078 29.658C40.4525 29.658 38.6256 31.4848 38.6256 33.7402C38.6256 35.9955 40.4525 37.8223 42.7078 37.8223C44.9631 37.8223 46.7899 35.9955 46.7899 33.7402C46.7899 31.4883 44.9631 29.658 42.7078 29.658ZM23.7732 33.7437C23.7732 35.999 21.9464 37.8258 19.691 37.8258C17.4357 37.8258 15.6089 35.999 15.6089 33.7437C15.6089 31.4883 17.4357 29.6615 19.691 29.6615C21.9464 29.658 23.7732 31.4883 23.7732 33.7437Z" fill="#333333"/>
</svg>
