<svg width="100" height="100" viewBox="0 0 100 100" fill="none" xmlns="http://www.w3.org/2000/svg">
<circle cx="50" cy="50" r="49" stroke="#A4EC18" stroke-width="2"/>
<g filter="url(#filter0_d_1_8496)">
<ellipse cx="50" cy="50.5" rx="42" ry="41.5" fill="#F9F9F9"/>
</g>
<path d="M68.7842 31.9502C70.0287 31.9502 71.043 32.9648 71.0498 34.209V59.1074C71.0497 60.3518 70.0354 61.3662 68.791 61.3662H56.4307L57.0557 64.9434H59.8896C60.6247 64.9434 61.2224 65.5404 61.2227 66.2754V67.9121H69.5059C69.8044 67.9123 70.0517 68.1595 70.0518 68.458C70.0518 68.7566 69.8044 69.0037 69.5059 69.0039H31.0898C30.792 69.0039 30.544 68.7644 30.5439 68.4648C30.5439 68.1661 30.7911 67.9189 31.0898 67.9189H38.7773V66.2822C38.7775 65.5471 39.3752 64.9492 40.1104 64.9492H42.9453L43.5693 61.373H31.209C29.9647 61.373 28.9504 60.3585 28.9502 59.1143V34.209C28.9502 32.9646 29.9646 31.9502 31.209 31.9502H68.7842ZM40.1104 66.0352C39.9794 66.0352 39.8694 66.1445 39.8691 66.2754V67.9121H60.124V66.2754C60.1238 66.1422 60.0186 66.0352 59.8965 66.0352H40.1104ZM44.0439 64.9492H55.9482L55.3184 61.373H44.668L44.0439 64.9492ZM30.042 59.1143C30.0422 59.7608 30.5686 60.2803 31.209 60.2803H68.7842C69.4308 60.2803 69.9509 59.7546 69.9512 59.1143V56.5781H30.042V59.1143ZM31.209 33.042C30.5622 33.042 30.042 33.5685 30.042 34.209V55.4863H69.958V34.209C69.958 33.5622 69.4315 33.042 68.791 33.042H31.209Z" fill="#333333" stroke="black" stroke-width="0.1"/>
<path d="M66.8408 34.6416C67.1395 34.6416 67.3867 34.8888 67.3867 35.1875V53.0762C67.3866 53.3748 67.1394 53.622 66.8408 53.6221H33.1602C32.8549 53.6221 32.6144 53.3814 32.6143 53.0762V35.1875C32.6143 34.8887 32.8614 34.6416 33.1602 34.6416H66.8408ZM38.0508 52.5303H66.2949V35.7334H38.0508V52.5303ZM33.7061 52.5303H36.959V50.0439H33.7061V52.5303ZM33.7061 48.9521H36.959V46.4668H33.7061V48.9521ZM33.7061 45.375H36.959V42.8887H33.7061V45.375ZM33.7061 41.7969H36.959V39.3115H33.7061V41.7969ZM33.7061 38.2188H36.959V35.7334H33.7061V38.2188Z" fill="#333333" stroke="black" stroke-width="0.1"/>
<path d="M50.5859 36.9893C53.1 36.9894 55.1396 39.0356 55.1396 41.543C55.1396 41.8495 55.1079 42.1437 55.0527 42.4258C56.671 43.1296 57.8047 44.7368 57.8047 46.6084C57.8046 49.1225 55.7583 51.162 53.251 51.1621C52.2536 51.1621 51.3352 50.8345 50.585 50.292C49.835 50.8341 48.9177 51.162 47.9209 51.1621C45.4067 51.1621 43.3673 49.1158 43.3672 46.6084C43.3672 44.7369 44.5001 43.1296 46.1182 42.4258C46.0629 42.1378 46.0323 41.8436 46.0322 41.543C46.0322 39.0288 48.0718 36.9893 50.5859 36.9893ZM46.4629 43.4805C45.2796 44.031 44.4521 45.2242 44.4521 46.6084C44.4522 48.5184 46.0041 50.0703 47.9141 50.0703C48.5914 50.0703 49.2184 49.8712 49.7559 49.5312C49.0967 48.742 48.6905 47.724 48.6904 46.6152C48.6904 46.3085 48.7211 46.0137 48.7764 45.7314C47.7593 45.2927 46.9356 44.4829 46.4629 43.4805ZM54.6953 43.4805C54.2287 44.4832 53.4045 45.2928 52.3809 45.7314C52.4362 46.0196 52.4678 46.3144 52.4678 46.6152C52.4677 47.724 52.067 48.7417 51.4014 49.5312C51.9333 49.8656 52.5669 50.0703 53.2441 50.0703C55.1541 50.0703 56.706 48.5184 56.7061 46.6084C56.7061 45.224 55.8847 44.0309 54.6953 43.4805ZM51.3174 46.0371C51.0786 46.0783 50.8291 46.1025 50.5791 46.1025C50.3288 46.1025 50.0789 46.0784 49.8398 46.0371C49.8096 46.2265 49.7822 46.4179 49.7822 46.6084C49.7823 47.4332 50.0869 48.183 50.5791 48.7822C51.071 48.1893 51.3759 47.4396 51.376 46.6084C51.376 46.4169 51.3516 46.225 51.3174 46.0371ZM50.5791 44.4326C50.4413 44.6026 50.3211 44.7819 50.2148 44.9746C50.3371 44.9923 50.4555 45.0107 50.5791 45.0107C50.7027 45.0107 50.821 44.9923 50.9434 44.9746C50.8412 44.7827 50.718 44.6031 50.5791 44.4326ZM53.2441 43.1533C52.5663 43.1533 51.9381 43.351 51.4004 43.6914C51.6532 43.9936 51.8666 44.324 52.0303 44.6885C52.7051 44.3701 53.2534 43.8426 53.6064 43.1885C53.4848 43.1709 53.367 43.1533 53.2441 43.1533ZM47.9141 43.1465C47.7906 43.1465 47.672 43.1639 47.5498 43.1816C47.903 43.8369 48.4529 44.37 49.1279 44.6826C49.2972 44.3237 49.5106 43.9932 49.7578 43.6855C49.2257 43.3508 48.5916 43.1465 47.9141 43.1465ZM50.5859 38.0879C48.676 38.0879 47.1242 39.639 47.124 41.5488C47.124 41.7456 47.1477 41.9374 47.1816 42.1191C47.4205 42.0779 47.6708 42.0547 47.9209 42.0547C48.9176 42.0548 49.835 42.3819 50.585 42.9238C51.3351 42.3814 52.2538 42.0547 53.251 42.0547C53.5009 42.0547 53.7506 42.078 53.9893 42.1191C54.0234 41.9325 54.0469 41.7459 54.0469 41.5488C54.0467 39.6391 52.4957 38.0881 50.5859 38.0879Z" fill="#333333" stroke="black" stroke-width="0.1"/>
<defs>
<filter id="filter0_d_1_8496" x="4" y="9" width="92" height="91" filterUnits="userSpaceOnUse" color-interpolation-filters="sRGB">
<feFlood flood-opacity="0" result="BackgroundImageFix"/>
<feColorMatrix in="SourceAlpha" type="matrix" values="0 0 0 0 0 0 0 0 0 0 0 0 0 0 0 0 0 0 127 0" result="hardAlpha"/>
<feOffset dy="4"/>
<feGaussianBlur stdDeviation="2"/>
<feComposite in2="hardAlpha" operator="out"/>
<feColorMatrix type="matrix" values="0 0 0 0 0 0 0 0 0 0 0 0 0 0 0 0 0 0 0.25 0"/>
<feBlend mode="normal" in2="BackgroundImageFix" result="effect1_dropShadow_1_8496"/>
<feBlend mode="normal" in="SourceGraphic" in2="effect1_dropShadow_1_8496" result="shape"/>
</filter>
</defs>
</svg>
