<svg width="125" height="48" viewBox="0 0 125 48" fill="none" xmlns="http://www.w3.org/2000/svg">
<path d="M101.209 27.706L103.25 27.2442C103.293 27.2336 103.367 27.2195 103.451 27.1913C104.622 26.8846 105.337 25.7177 105.062 24.5578L105.055 24.5226C104.988 24.2546 104.868 24.0008 104.706 23.7787C104.477 23.4931 104.195 23.2569 103.874 23.0771C103.497 22.8656 103.099 22.6858 102.69 22.5413L100.451 21.7375C99.1961 21.2792 97.9376 20.8315 96.6684 20.3979C95.847 20.1123 95.149 19.8585 94.5461 19.6751C94.4298 19.6434 94.317 19.6082 94.2042 19.5729C93.4744 19.3543 92.9562 19.2627 92.5226 19.2591C92.2335 19.2486 91.9444 19.3015 91.6765 19.4107C91.398 19.5306 91.1441 19.7069 90.9397 19.9254C90.8374 20.0383 90.7423 20.1581 90.6506 20.2815C90.4743 20.5459 90.3333 20.8279 90.2205 21.1206C89.8045 22.3262 89.5965 23.5919 89.6071 24.8645C89.6141 26.0138 89.6458 27.4909 90.291 28.4922C90.4461 28.7495 90.6541 28.9716 90.9044 29.1443C91.3627 29.4546 91.8245 29.4969 92.311 29.5321C93.0338 29.5815 93.7283 29.4088 94.4263 29.2501L101.209 27.713H101.213L101.209 27.706ZM123.987 17.0699C123.43 15.9206 122.679 14.8736 121.769 13.9675C121.653 13.8512 121.526 13.7454 121.392 13.6502C121.269 13.5586 121.142 13.474 121.008 13.3964C120.87 13.3224 120.733 13.2554 120.588 13.199C120.306 13.0897 120.003 13.0404 119.696 13.0545C119.407 13.0721 119.122 13.1496 118.864 13.2836C118.477 13.474 118.053 13.7807 117.493 14.2883C117.415 14.3624 117.32 14.4505 117.232 14.5281C116.77 14.9546 116.256 15.4799 115.646 16.0933C114.701 17.0311 113.77 17.9759 112.843 18.9278L111.186 20.6129C110.883 20.9196 110.608 21.2545 110.361 21.6071C110.15 21.9067 110.001 22.2416 109.924 22.5977C109.878 22.8692 109.885 23.1477 109.945 23.4191L109.952 23.4544C110.224 24.6142 111.383 25.3546 112.571 25.1289C112.642 25.1184 112.709 25.1078 112.776 25.0901L121.604 23.0877C122.302 22.9291 123.007 22.7845 123.631 22.4285C124.05 22.1923 124.449 21.9561 124.724 21.4801C124.868 21.2193 124.956 20.9267 124.981 20.6305C125.118 19.4495 124.487 18.1099 123.983 17.0734L123.987 17.0699ZM108.186 20.7116C108.824 19.9219 108.824 18.748 108.88 17.7855C109.074 14.5739 109.275 11.3623 109.437 8.15064C109.497 6.93438 109.631 5.73222 109.557 4.50538C109.497 3.49359 109.49 2.33374 108.838 1.50175C107.689 0.0387106 105.239 0.158574 103.568 0.387724C103.053 0.458232 102.542 0.553418 102.034 0.669756C101.526 0.789619 101.022 0.920059 100.529 1.07518C98.9247 1.58988 96.6684 2.53821 96.2912 4.35027C96.0762 5.37615 96.5873 6.4232 96.9787 7.36095C97.4581 8.4926 98.1138 9.51496 98.7096 10.5832C100.289 13.3999 101.897 16.2026 103.497 19.0088C103.977 19.8444 104.498 20.9055 105.426 21.3391C105.489 21.3638 105.549 21.3885 105.612 21.4096C106.028 21.5648 106.483 21.593 106.913 21.4942L106.991 21.4766C107.393 21.3673 107.752 21.1558 108.034 20.8597C108.087 20.8103 108.133 20.7645 108.182 20.7116H108.186ZM107.421 29.3065C106.91 28.5979 105.993 28.2947 105.147 28.5556C105.052 28.5873 104.957 28.6261 104.865 28.6684C104.724 28.7389 104.59 28.82 104.463 28.9152C104.103 29.1937 103.779 29.518 103.504 29.8776C103.434 29.9658 103.367 30.0821 103.282 30.1597L101.861 32.0739C101.058 33.1492 100.261 34.2244 99.4782 35.3173C98.9635 36.0224 98.5193 36.6217 98.1667 37.147C98.0997 37.2457 98.0328 37.355 97.9693 37.4466C97.5463 38.0847 97.3101 38.5501 97.1867 38.9661C97.095 39.2411 97.0668 39.5337 97.1021 39.8228C97.1408 40.1224 97.2431 40.4115 97.4052 40.6689C97.4899 40.7993 97.5815 40.9227 97.6802 41.0425C97.8917 41.2823 98.1315 41.4973 98.3924 41.6877C99.3724 42.3575 100.444 42.837 101.572 43.2107C102.514 43.5174 103.487 43.7007 104.474 43.7536C104.643 43.7606 104.812 43.7571 104.978 43.743C105.133 43.7289 105.288 43.7077 105.44 43.6795C105.591 43.6443 105.743 43.602 105.891 43.5491C106.18 43.4433 106.441 43.2776 106.663 43.0661C106.871 42.8616 107.033 42.6149 107.132 42.3434C107.297 41.9415 107.403 41.4339 107.477 40.6759C107.481 40.5666 107.498 40.4397 107.509 40.3234C107.565 39.6958 107.59 38.9555 107.629 38.0883C107.699 36.7557 107.752 35.4266 107.795 34.094L107.886 31.7249C107.907 31.182 107.886 30.5757 107.735 30.0327C107.668 29.7719 107.558 29.5251 107.41 29.2959L107.421 29.3065ZM123.447 33.0152C123.151 32.6944 122.732 32.3771 122.069 31.9858C121.974 31.9329 121.861 31.8624 121.759 31.8025C121.209 31.4746 120.542 31.1362 119.767 30.7202C118.575 30.0751 117.384 29.4511 116.178 28.8306L114.052 27.7236C113.943 27.6919 113.83 27.6143 113.724 27.565C113.315 27.3605 112.882 27.2089 112.43 27.1137C112.275 27.0855 112.12 27.0679 111.962 27.0644C111.859 27.0644 111.757 27.0714 111.655 27.082C110.781 27.216 110.093 27.8823 109.949 28.7389C109.917 29.0033 109.927 29.2748 109.98 29.5357C110.083 30.0927 110.336 30.6426 110.597 31.1221L111.732 33.2127C112.367 34.3901 113.005 35.5641 113.661 36.731C114.084 37.4925 114.436 38.1447 114.768 38.6841C114.831 38.7863 114.902 38.8956 114.955 38.9908C115.357 39.6394 115.677 40.0484 116.005 40.3445C116.446 40.7605 117.052 40.9615 117.659 40.891C117.814 40.8733 117.969 40.8451 118.124 40.8099C118.438 40.7288 118.741 40.6089 119.026 40.4609C119.89 39.9849 120.687 39.4032 121.392 38.7228C122.242 37.9014 122.993 37.006 123.578 35.9836C123.659 35.8391 123.729 35.6875 123.789 35.5324C123.846 35.3878 123.892 35.2433 123.93 35.0952C123.966 34.9436 123.99 34.792 124.008 34.6404C124.036 34.3408 124.001 34.0376 123.906 33.752C123.81 33.4771 123.652 33.2268 123.447 33.0188V33.0152Z" fill="#FF1A1A"/>
<path fill-rule="evenodd" clip-rule="evenodd" d="M50.2038 12.6843C50.2038 10.9603 51.6316 9.55371 53.359 9.55371C55.0865 9.55371 56.4402 10.9603 56.5142 12.7089V37.1329C56.5142 38.8568 55.0829 40.2634 53.359 40.2634C51.6175 40.2634 50.2038 38.8744 50.2038 37.1646C50.2038 37.154 50.2038 37.1434 50.2038 37.1329V12.6843ZM47.2707 27.7694C47.246 28.2524 47.1226 29.1514 46.4845 29.8071C45.7935 30.5122 44.8593 30.6779 44.3164 30.6779C42.0601 30.692 39.8074 30.6955 37.5512 30.7025C35.2949 30.7096 33.0422 30.7166 30.7859 30.7272C30.9834 31.3336 31.3747 32.2572 32.2631 33.1033C32.806 33.6145 33.3207 33.9036 33.5463 34.027C33.8178 34.1962 34.752 34.6827 35.9119 34.6827C37.1457 34.6827 38.228 34.2949 39.2892 33.7591L39.3773 33.7132C40.1141 33.3395 40.8756 32.9517 41.6794 32.8107C42.4656 32.6909 43.3046 32.8354 43.9216 33.3677C44.6619 33.9988 44.958 34.9189 44.6866 35.8672C44.3657 36.9354 43.4562 37.8556 42.4938 38.4126C41.9438 38.7299 41.3656 38.9978 40.7698 39.2128C39.2434 39.7452 37.6322 39.9919 36.0141 39.9426C35.6193 39.9426 35.1997 39.9426 34.7802 39.8932C34.336 39.8439 33.8953 39.7452 33.4758 39.65C32.7954 39.5054 32.1326 39.2869 31.5016 38.9943C30.8705 38.7193 30.2677 38.3879 29.7036 38.0001C29.1396 37.6017 28.6108 37.154 28.1278 36.6675C27.6448 36.1704 27.2077 35.6381 26.8199 35.067C25.4908 33.0787 24.8739 30.6285 24.9972 28.2524C25.096 25.9256 25.8856 23.5953 27.3134 21.7057C27.4685 21.466 27.6448 21.2651 27.814 21.0747C27.8881 20.9901 27.9586 20.909 28.0256 20.8314C29.7918 18.7127 32.1467 18.0429 33.1197 17.7679L33.1726 17.7502C35.1468 17.2003 37.2374 17.2003 39.2116 17.7502C39.6805 17.8736 42.3175 18.6739 44.3622 20.8314C44.4609 20.9266 44.7324 21.2439 45.0779 21.7057C45.9522 22.8762 46.5938 24.1947 46.971 25.5978V25.6119C47.1226 26.1442 47.2707 26.8704 47.2707 27.7694ZM32.8025 23.7681C31.8295 24.5437 31.1526 25.6224 30.8811 26.8246H41.6265C41.3374 25.6224 40.6535 24.5507 39.6805 23.7681C38.7004 22.996 37.4877 22.5695 36.2291 22.5554C34.9812 22.5659 33.7719 22.996 32.8025 23.7681ZM73.6618 17.3413C70.852 17.3413 68.2891 18.5787 66.4664 20.5917V20.5177C66.3889 18.8149 64.9223 17.4964 63.1878 17.5705C61.4956 17.6445 60.1666 19.0229 60.1842 20.6869V43.9933C60.1771 45.6996 61.5802 47.0886 63.3183 47.0991C63.3253 47.0991 63.3324 47.0991 63.3394 47.0991C65.0774 47.0991 66.4911 45.7207 66.4946 44.0144C66.4946 44.0074 66.4946 44.0003 66.4946 43.9968V36.7204C68.3173 38.7087 70.8555 39.9708 73.69 39.9708C79.3341 39.9708 83.9171 34.9506 83.9171 28.6895C83.8924 22.432 79.3094 17.3378 73.6653 17.3378L73.6618 17.3413ZM72.2833 34.9013C69.0787 34.9013 66.4664 32.1585 66.4664 28.7424C66.4664 25.3263 69.0541 22.5554 72.2833 22.5554C75.5126 22.5554 78.0967 25.2981 78.0967 28.7424C78.072 32.1621 75.4844 34.9013 72.2833 34.9013ZM20.2591 30.3183L19.2227 32.5498C18.7538 33.5193 18.2849 34.5135 17.8407 35.5076L17.4141 36.4419C15.4434 40.7429 13.1061 45.8476 8.00838 46.9299C5.54413 47.4658 1.82132 46.736 0.442887 44.4551C-0.935542 42.153 1.10919 39.509 3.74618 40.1153C4.16218 40.207 4.57112 40.4044 4.98359 40.6089C5.67104 40.9473 6.36907 41.2858 7.12351 41.1342C7.83916 41.0143 8.27983 40.5031 8.84742 39.8474C9.63358 38.952 9.97907 38.0036 10.1271 37.4466L10.0919 37.362C10.0813 37.3338 10.0672 37.3056 10.0531 37.2774C9.41148 36.1034 8.85095 35.0529 8.38207 34.1751C8.11767 33.678 7.85326 33.1844 7.58533 32.6944L6.51009 30.692C5.72392 29.2289 5.59348 28.9857 5.24447 28.3546C4.47946 26.9339 3.67215 25.5343 2.82958 24.1594C1.9165 22.6541 0.982272 20.983 1.74728 19.2098C2.34307 17.7855 3.95065 17.0487 5.44189 17.514C7.02832 17.9864 7.72987 19.4671 8.3856 20.8526C8.50546 21.1029 8.6218 21.3532 8.74166 21.5894C9.79928 23.6518 10.8357 25.7141 11.8722 27.7765C11.9639 27.9809 12.1014 28.2594 12.2741 28.6014C12.4257 28.9046 12.602 29.2571 12.7853 29.6449L13.0603 30.2055C13.166 30.424 13.2612 30.6109 13.3282 30.7625C13.8076 29.5885 14.2942 28.4181 14.7807 27.2441C15.2672 26.0737 15.7537 24.9033 16.2366 23.7258C16.2507 23.6623 16.3636 23.412 16.5398 23.0313C16.6844 22.7105 16.8712 22.3015 17.0757 21.8327L17.2837 21.3391C17.9218 19.8091 18.6938 17.9688 20.4037 17.4682C21.6481 17.1157 22.9807 17.5705 23.7316 18.6069C24.1018 19.1146 24.2499 19.6998 24.2745 20.2815C24.2957 21.5682 23.6611 22.9502 23.1182 24.1347C22.9878 24.4238 22.8609 24.7023 22.748 24.9632L22.6811 25.1042C22.5295 25.4391 22.1205 26.3381 21.4154 27.8258C21.1616 28.3582 20.9184 28.8905 20.6681 29.4299L20.2556 30.3218L20.2591 30.3183Z" fill="#333333"/>
</svg>
