<svg width="81" height="56" viewBox="0 0 81 56" fill="none" xmlns="http://www.w3.org/2000/svg">
<path fill-rule="evenodd" clip-rule="evenodd" d="M32.0719 37.7692L32.0689 15.7514L53.91 26.7987L32.0719 37.7692ZM80.0283 11.9367C80.0283 11.9367 79.2381 6.53661 76.815 4.15946C73.7402 1.03727 70.2945 1.02268 68.7162 0.840797C57.4041 0.0471191 40.4355 0.0471191 40.4355 0.0471191H40.4001C40.4001 0.0471191 23.4325 0.0471191 12.1204 0.840797C10.5391 1.02171 7.09544 1.0363 4.01859 4.15946C1.59652 6.53661 0.808366 11.9367 0.808366 11.9367C0.808366 11.9367 0 18.2794 0 24.619V30.5648C0 36.9074 0.808366 43.2471 0.808366 43.2471C0.808366 43.2471 1.59652 48.6473 4.0196 51.0244C7.09645 54.1466 11.1352 54.0484 12.9339 54.3742C19.4008 54.9763 40.4183 55.163 40.4183 55.163C40.4183 55.163 57.4041 55.1387 68.7162 54.345C70.2945 54.1612 73.7412 54.1466 76.815 51.0244C79.2381 48.6463 80.0283 43.2471 80.0283 43.2471C80.0283 43.2471 80.8366 36.9074 80.8366 30.5648V24.619C80.8366 18.2794 80.0283 11.9367 80.0283 11.9367Z" fill="#CE1312"/>
</svg>
